<svg xmlns="http://www.w3.org/2000/svg" viewBox="0 0 1200 800" width="1200" height="800">
  <defs>

    <linearGradient id="pageBg" x1="0%" y1="0%" x2="100%" y2="100%">
      <stop offset="0%" style="stop-color:#0D1117"/>
      <stop offset="100%" style="stop-color:#080D13"/>
    </linearGradient>
    <linearGradient id="boardSurf" x1="0%" y1="0%" x2="100%" y2="100%">
      <stop offset="0%" style="stop-color:#141E2C"/>
      <stop offset="100%" style="stop-color:#0A1018"/>
    </linearGradient>
    <linearGradient id="ironGrad" x1="0%" y1="0%" x2="100%" y2="100%">
      <stop offset="0%" style="stop-color:#4A4A5A"/>
      <stop offset="100%" style="stop-color:#1A1A25"/>
    </linearGradient>
    <linearGradient id="cardBg" x1="0%" y1="0%" x2="0%" y2="100%">
      <stop offset="0%" style="stop-color:#071A1A"/>
      <stop offset="100%" style="stop-color:#030D0D"/>
    </linearGradient>
    <linearGradient id="ivoryFace" x1="10%" y1="8%" x2="88%" y2="92%">
      <stop offset="0%"   style="stop-color:#F7EDD0"/>
      <stop offset="40%"  style="stop-color:#EDD9A3"/>
      <stop offset="100%" style="stop-color:#B8963A"/>
    </linearGradient>
    <linearGradient id="tileBaseGrad" x1="0%" y1="0%" x2="100%" y2="100%">
      <stop offset="0%" style="stop-color:#4A3000"/>
      <stop offset="100%" style="stop-color:#1A1000"/>
    </linearGradient>

    <!-- Surge column wave — vertical gradient top to bottom -->
    <linearGradient id="surgeWave" x1="0%" y1="0%" x2="0%" y2="100%">
      <stop offset="0%"   style="stop-color:#00FFEE00"/>
      <stop offset="18%"  style="stop-color:#00FFEEAA"/>
      <stop offset="50%"  style="stop-color:#00FFFFFF"/>
      <stop offset="82%"  style="stop-color:#00FFEEAA"/>
      <stop offset="100%" style="stop-color:#00FFEE00"/>
    </linearGradient>

    <!-- Column glow fill — teal radial per cell -->
    <radialGradient id="cellSurge" cx="50%" cy="50%" r="50%">
      <stop offset="0%"   style="stop-color:#00FFEE;stop-opacity:0.4"/>
      <stop offset="55%"  style="stop-color:#00BBCC;stop-opacity:0.15"/>
      <stop offset="100%" style="stop-color:#009999;stop-opacity:0"/>
    </radialGradient>

    <!-- Surge core burst at entry point -->
    <radialGradient id="surgeCore" cx="50%" cy="50%" r="50%">
      <stop offset="0%"   style="stop-color:#FFFFFF"/>
      <stop offset="20%"  style="stop-color:#AAFFFF"/>
      <stop offset="55%"  style="stop-color:#00D4D8"/>
      <stop offset="85%"  style="stop-color:#006688;stop-opacity:0.5"/>
      <stop offset="100%" style="stop-color:#003344;stop-opacity:0"/>
    </radialGradient>

    <!-- Revealed tile highlight -->
    <radialGradient id="tileReveal" cx="50%" cy="50%" r="50%">
      <stop offset="0%"   style="stop-color:#00FFEE;stop-opacity:0.25"/>
      <stop offset="100%" style="stop-color:#00FFEE;stop-opacity:0"/>
    </radialGradient>

    <!-- FILTERS -->
    <filter id="surgeFx" x="-120%" y="-30%" width="340%" height="160%">
      <feGaussianBlur in="SourceAlpha" stdDeviation="14" result="b1"/>
      <feFlood flood-color="#00FFEE" flood-opacity="0.9" result="c1"/>
      <feComposite in="c1" in2="b1" operator="in" result="g1"/>
      <feGaussianBlur in="SourceAlpha" stdDeviation="32" result="b2"/>
      <feFlood flood-color="#00BBCC" flood-opacity="0.5" result="c2"/>
      <feComposite in="c2" in2="b2" operator="in" result="g2"/>
      <feMerge>
        <feMergeNode in="g2"/>
        <feMergeNode in="g1"/>
        <feMergeNode in="SourceGraphic"/>
      </feMerge>
    </filter>

    <filter id="surgeCoreFx" x="-150%" y="-150%" width="400%" height="400%">
      <feGaussianBlur in="SourceAlpha" stdDeviation="12" result="b1"/>
      <feFlood flood-color="#00FFEE" flood-opacity="1" result="c1"/>
      <feComposite in="c1" in2="b1" operator="in" result="g1"/>
      <feGaussianBlur in="SourceAlpha" stdDeviation="28" result="b2"/>
      <feFlood flood-color="#00AACC" flood-opacity="0.6" result="c2"/>
      <feComposite in="c2" in2="b2" operator="in" result="g2"/>
      <feMerge>
        <feMergeNode in="g2"/>
        <feMergeNode in="g1"/>
        <feMergeNode in="SourceGraphic"/>
      </feMerge>
    </filter>

    <filter id="tealLabelGlow">
      <feGaussianBlur in="SourceAlpha" stdDeviation="4" result="blur"/>
      <feFlood flood-color="#00FFEE" flood-opacity="0.8" result="color"/>
      <feComposite in="color" in2="blur" operator="in" result="glow"/>
      <feMerge>
        <feMergeNode in="glow"/>
        <feMergeNode in="SourceGraphic"/>
      </feMerge>
    </filter>

    <filter id="goldLabelGlow">
      <feGaussianBlur in="SourceAlpha" stdDeviation="3" result="blur"/>
      <feFlood flood-color="#FFD700" flood-opacity="0.6" result="color"/>
      <feComposite in="color" in2="blur" operator="in" result="glow"/>
      <feMerge>
        <feMergeNode in="glow"/>
        <feMergeNode in="SourceGraphic"/>
      </feMerge>
    </filter>

    <filter id="arcFx" x="-40%" y="-10%" width="180%" height="120%">
      <feGaussianBlur in="SourceAlpha" stdDeviation="4" result="blur"/>
      <feFlood flood-color="#00FFEE" flood-opacity="0.7" result="color"/>
      <feComposite in="color" in2="blur" operator="in" result="glow"/>
      <feMerge>
        <feMergeNode in="glow"/>
        <feMergeNode in="SourceGraphic"/>
      </feMerge>
    </filter>

    <filter id="boardShadow">
      <feDropShadow dx="0" dy="0" stdDeviation="18" flood-color="#000000" flood-opacity="0.8"/>
    </filter>

    <filter id="tileShadow">
      <feDropShadow dx="3" dy="5" stdDeviation="6" flood-color="#000000" flood-opacity="0.6"/>
    </filter>

    <filter id="scanlineFx" x="-5%" y="-200%" width="110%" height="500%">
      <feGaussianBlur in="SourceAlpha" stdDeviation="5" result="blur"/>
      <feFlood flood-color="#00FFEE" flood-opacity="0.65" result="color"/>
      <feComposite in="color" in2="blur" operator="in" result="glow"/>
      <feMerge>
        <feMergeNode in="glow"/>
        <feMergeNode in="SourceGraphic"/>
      </feMerge>
    </filter>

    <pattern id="grain" x="0" y="0" width="1200" height="22" patternUnits="userSpaceOnUse">
      <line x1="0" y1="11" x2="1200" y2="11" stroke="#FFFFFF" stroke-width="0.4" opacity="0.02"/>
    </pattern>

  </defs>

  <!-- ══ PAGE ══ -->
  <rect width="1200" height="800" fill="url(#pageBg)"/>
  <rect width="1200" height="800" fill="url(#grain)"/>

  <text x="600" y="38" font-family="Georgia, serif" font-size="12"
        text-anchor="middle" fill="#0D5A5A" letter-spacing="6" opacity="0.9">LEXICON  —  WORD BOMB  —  TIER III</text>
  <line x1="180" y1="48" x2="1020" y2="48" stroke="#0A3A3A" stroke-width="1" opacity="0.6"/>

  <!-- ══ BOARD ══ -->
  <rect x="80" y="65" width="760" height="680" rx="8"
        fill="url(#boardSurf)" filter="url(#boardShadow)"/>
  <rect x="80" y="65" width="760" height="680" rx="8" fill="url(#grain)" opacity="0.5"/>
  <rect x="80" y="65" width="760" height="680" rx="8"
        fill="none" stroke="#2A3A50" stroke-width="2"/>

  <!-- Runes top -->
  <g fill="#2A4A4A" font-family="serif" font-size="11" opacity="0.5">
    <text x="98"  y="88">ᚠ</text><text x="114" y="88">ᚢ</text><text x="130" y="88">ᚦ</text>
    <text x="146" y="88">ᚨ</text><text x="162" y="88">ᚱ</text><text x="190" y="88">ᚷ</text>
    <text x="640" y="88">ᛁ</text><text x="656" y="88">ᛃ</text><text x="672" y="88">ᛇ</text>
    <text x="688" y="88">ᛈ</text><text x="710" y="88">ᛊ</text><text x="736" y="88">ᛏ</text>
    <text x="752" y="88">ᛒ</text><text x="768" y="88">ᛖ</text><text x="800" y="88">ᛚ</text>
    <text x="820" y="88">ᛞ</text>
  </g>

  <!-- ══ GRID: x=155 y=120, 68×56px cells, 10×10
       Col centres A-J: 189,257,325,393,461,529,597,665,733,801
       Row centres 1-10: 148,204,260,316,372,428,484,540,596,652
       Target column: G  x=563 to x=631, centre x=597
  ══ -->
  <rect x="155" y="120" width="680" height="560" fill="#070E18" opacity="0.95"/>

  <!-- Column G full wash -->
  <rect x="563" y="120" width="68" height="560"
        fill="#00FFEE" opacity="0.06" filter="url(#surgeFx)"/>

  <!-- Per-cell reveal glow, column G -->
  <rect x="563" y="120" width="68" height="56" fill="url(#cellSurge)"/>
  <rect x="563" y="176" width="68" height="56" fill="url(#cellSurge)"/>
  <rect x="563" y="232" width="68" height="56" fill="url(#cellSurge)"/>
  <rect x="563" y="288" width="68" height="56" fill="url(#cellSurge)"/>
  <rect x="563" y="344" width="68" height="56" fill="url(#cellSurge)"/>
  <rect x="563" y="400" width="68" height="56" fill="url(#cellSurge)"/>
  <rect x="563" y="456" width="68" height="56" fill="url(#cellSurge)"/>
  <rect x="563" y="512" width="68" height="56" fill="url(#cellSurge)"/>
  <rect x="563" y="568" width="68" height="56" fill="url(#cellSurge)"/>
  <rect x="563" y="624" width="68" height="56" fill="url(#cellSurge)"/>

  <!-- Grid lines glow -->
  <g stroke="#C8922A" stroke-width="2" opacity="0.18">
    <line x1="155" y1="120" x2="155" y2="680"/><line x1="223" y1="120" x2="223" y2="680"/>
    <line x1="291" y1="120" x2="291" y2="680"/><line x1="359" y1="120" x2="359" y2="680"/>
    <line x1="427" y1="120" x2="427" y2="680"/><line x1="495" y1="120" x2="495" y2="680"/>
    <line x1="563" y1="120" x2="563" y2="680"/><line x1="631" y1="120" x2="631" y2="680"/>
    <line x1="699" y1="120" x2="699" y2="680"/><line x1="767" y1="120" x2="767" y2="680"/>
    <line x1="835" y1="120" x2="835" y2="680"/>
    <line x1="155" y1="120" x2="835" y2="120"/><line x1="155" y1="176" x2="835" y2="176"/>
    <line x1="155" y1="232" x2="835" y2="232"/><line x1="155" y1="288" x2="835" y2="288"/>
    <line x1="155" y1="344" x2="835" y2="344"/><line x1="155" y1="400" x2="835" y2="400"/>
    <line x1="155" y1="456" x2="835" y2="456"/><line x1="155" y1="512" x2="835" y2="512"/>
    <line x1="155" y1="568" x2="835" y2="568"/><line x1="155" y1="624" x2="835" y2="624"/>
    <line x1="155" y1="680" x2="835" y2="680"/>
  </g>
  <!-- Grid lines sharp -->
  <g stroke="#D4A030" stroke-width="0.8" opacity="0.8">
    <line x1="155" y1="120" x2="155" y2="680"/><line x1="223" y1="120" x2="223" y2="680"/>
    <line x1="291" y1="120" x2="291" y2="680"/><line x1="359" y1="120" x2="359" y2="680"/>
    <line x1="427" y1="120" x2="427" y2="680"/><line x1="495" y1="120" x2="495" y2="680"/>
    <line x1="563" y1="120" x2="563" y2="680"/><line x1="631" y1="120" x2="631" y2="680"/>
    <line x1="699" y1="120" x2="699" y2="680"/><line x1="767" y1="120" x2="767" y2="680"/>
    <line x1="835" y1="120" x2="835" y2="680"/>
    <line x1="155" y1="120" x2="835" y2="120"/><line x1="155" y1="176" x2="835" y2="176"/>
    <line x1="155" y1="232" x2="835" y2="232"/><line x1="155" y1="288" x2="835" y2="288"/>
    <line x1="155" y1="344" x2="835" y2="344"/><line x1="155" y1="400" x2="835" y2="400"/>
    <line x1="155" y1="456" x2="835" y2="456"/><line x1="155" y1="512" x2="835" y2="512"/>
    <line x1="155" y1="568" x2="835" y2="568"/><line x1="155" y1="624" x2="835" y2="624"/>
    <line x1="155" y1="680" x2="835" y2="680"/>
  </g>

  <!-- Column G border lines — teal electrified -->
  <g stroke="#00FFEE" stroke-width="1.8" opacity="0.75" filter="url(#scanlineFx)">
    <line x1="563" y1="120" x2="563" y2="680"/>
    <line x1="631" y1="120" x2="631" y2="680"/>
  </g>

  <!-- Scanline sweep — vertical pulse travelling down column G -->
  <rect x="563" y="120" width="68" height="4"
        fill="url(#surgeWave)" transform="rotate(90,597,400)"
        opacity="0"/>
  <!-- Actual vertical sweep line -->
  <rect x="563" y="390" width="68" height="3"
        fill="#00FFEE" filter="url(#scanlineFx)" opacity="0.9"/>
  <!-- Ghost echoes -->
  <rect x="563" y="376" width="68" height="1.5"
        fill="#00FFEE" opacity="0.3" filter="url(#arcFx)"/>
  <rect x="563" y="404" width="68" height="1.5"
        fill="#00FFEE" opacity="0.3" filter="url(#arcFx)"/>

  <!-- Horizontal arc tendrils from column G at each row intersection -->
  <!-- Shooting left -->
  <g stroke="#00FFEE" fill="none" filter="url(#arcFx)">
    <path d="M 563,148 Q 530,138 495,148" stroke-width="1.2" opacity="0.4"/>
    <path d="M 563,204 Q 528,194 495,204 Q 462,212 427,204" stroke-width="1.4" opacity="0.5"/>
    <path d="M 563,260 Q 525,250 495,260" stroke-width="1" opacity="0.35"/>
    <path d="M 563,316 Q 530,306 495,316 Q 465,324 427,316" stroke-width="1.4" opacity="0.55"/>
    <path d="M 563,372 Q 525,362 495,372" stroke-width="1.2" opacity="0.4"/>
    <path d="M 563,428 Q 528,418 495,428 Q 460,436 427,428 Q 395,420 359,428" stroke-width="1.6" opacity="0.65"/>
    <path d="M 563,484 Q 527,474 495,484" stroke-width="1" opacity="0.35"/>
    <path d="M 563,540 Q 530,530 495,540 Q 462,548 427,540" stroke-width="1.3" opacity="0.45"/>
    <path d="M 563,596 Q 528,586 495,596" stroke-width="1" opacity="0.3"/>
    <path d="M 563,652 Q 525,642 495,652 Q 460,660 427,652" stroke-width="1.2" opacity="0.4"/>
  </g>
  <!-- Shooting right -->
  <g stroke="#00FFEE" fill="none" filter="url(#arcFx)">
    <path d="M 631,148 Q 664,138 699,148" stroke-width="1.2" opacity="0.4"/>
    <path d="M 631,204 Q 666,194 699,204 Q 732,212 767,204" stroke-width="1.4" opacity="0.5"/>
    <path d="M 631,260 Q 668,250 699,260" stroke-width="1" opacity="0.35"/>
    <path d="M 631,316 Q 664,306 699,316 Q 730,324 767,316" stroke-width="1.4" opacity="0.55"/>
    <path d="M 631,372 Q 668,362 699,372" stroke-width="1.2" opacity="0.4"/>
    <path d="M 631,428 Q 666,418 699,428 Q 732,436 767,428 Q 800,420 835,428" stroke-width="1.6" opacity="0.65"/>
    <path d="M 631,484 Q 666,474 699,484" stroke-width="1" opacity="0.35"/>
    <path d="M 631,540 Q 664,530 699,540 Q 730,548 767,540" stroke-width="1.3" opacity="0.45"/>
    <path d="M 631,596 Q 666,586 699,596" stroke-width="1" opacity="0.3"/>
    <path d="M 631,652 Q 664,642 699,652 Q 732,660 767,652" stroke-width="1.2" opacity="0.4"/>
  </g>

  <!-- ══ REVEALED TILES in column G ══
       Showing: G1=empty, G2=tile(R), G3=empty, G4=empty, G5=tile(S),
                G6=empty, G7=tile(T), G8=empty, G9=empty, G10=tile(N)
       Empty cells show a small dot. Tile cells show a mini tile.
  ══ -->

  <!-- G1 — EMPTY dot -->
  <circle cx="597" cy="148" r="4" fill="#00FFEE" opacity="0.35"/>

  <!-- G2 — TILE R (common) -->
  <g transform="translate(571, 180)" filter="url(#tileShadow)">
    <rect x="3" y="3" width="50" height="44" rx="6" fill="url(#tileBaseGrad)" opacity="0.8"/>
    <rect x="-1" y="-1" width="52" height="46" rx="7" fill="none" stroke="#AAAACC" stroke-width="1.5"/>
    <rect x="0" y="0" width="50" height="44" rx="6" fill="url(#ivoryFace)"/>
    <rect x="0" y="0" width="50" height="44" rx="6" fill="#00FFEE" opacity="0.12"/>
    <text x="25" y="34" font-family="Georgia, serif" font-size="28" font-weight="bold"
          text-anchor="middle" fill="#1C0E00">R</text>
    <rect x="33" y="30" width="14" height="12" rx="2" fill="#0D0800" opacity="0.8"/>
    <text x="40" y="40" font-family="Georgia, serif" font-size="8" font-weight="bold"
          text-anchor="middle" fill="#C8922A">1</text>
  </g>

  <!-- G3 — EMPTY dot -->
  <circle cx="597" cy="260" r="4" fill="#00FFEE" opacity="0.35"/>

  <!-- G4 — EMPTY dot -->
  <circle cx="597" cy="316" r="4" fill="#00FFEE" opacity="0.35"/>

  <!-- G5 — TILE S (common) -->
  <g transform="translate(571, 348)" filter="url(#tileShadow)">
    <rect x="3" y="3" width="50" height="44" rx="6" fill="url(#tileBaseGrad)" opacity="0.8"/>
    <rect x="-1" y="-1" width="52" height="46" rx="7" fill="none" stroke="#AAAACC" stroke-width="1.5"/>
    <rect x="0" y="0" width="50" height="44" rx="6" fill="url(#ivoryFace)"/>
    <rect x="0" y="0" width="50" height="44" rx="6" fill="#00FFEE" opacity="0.12"/>
    <text x="25" y="34" font-family="Georgia, serif" font-size="28" font-weight="bold"
          text-anchor="middle" fill="#1C0E00">S</text>
    <rect x="33" y="30" width="14" height="12" rx="2" fill="#0D0800" opacity="0.8"/>
    <text x="40" y="40" font-family="Georgia, serif" font-size="8" font-weight="bold"
          text-anchor="middle" fill="#C8922A">1</text>
  </g>

  <!-- G6 — EMPTY dot -->
  <circle cx="597" cy="428" r="4" fill="#00FFEE" opacity="0.35"/>

  <!-- G7 — TILE T (uncommon, 2-cell — show partial) -->
  <g transform="translate(571, 460)" filter="url(#tileShadow)">
    <rect x="3" y="3" width="50" height="44" rx="6" fill="url(#tileBaseGrad)" opacity="0.8"/>
    <rect x="-1" y="-1" width="52" height="46" rx="7" fill="none" stroke="#00D4FF" stroke-width="2"
          filter="url(#arcFx)" opacity="0.8"/>
    <rect x="0" y="0" width="50" height="44" rx="6" fill="url(#ivoryFace)"/>
    <rect x="0" y="0" width="50" height="44" rx="6" fill="#00FFEE" opacity="0.12"/>
    <text x="25" y="34" font-family="Georgia, serif" font-size="28" font-weight="bold"
          text-anchor="middle" fill="#1C0E00">T</text>
    <rect x="33" y="30" width="14" height="12" rx="2" fill="#0D0800" opacity="0.8"/>
    <text x="40" y="40" font-family="Georgia, serif" font-size="8" font-weight="bold"
          text-anchor="middle" fill="#00D4FF">1</text>
  </g>

  <!-- G8 — EMPTY dot -->
  <circle cx="597" cy="540" r="4" fill="#00FFEE" opacity="0.35"/>

  <!-- G9 — EMPTY dot -->
  <circle cx="597" cy="596" r="4" fill="#00FFEE" opacity="0.35"/>

  <!-- G10 — TILE N (common) -->
  <g transform="translate(571, 628)" filter="url(#tileShadow)">
    <rect x="3" y="3" width="50" height="44" rx="6" fill="url(#tileBaseGrad)" opacity="0.8"/>
    <rect x="-1" y="-1" width="52" height="46" rx="7" fill="none" stroke="#AAAACC" stroke-width="1.5"/>
    <rect x="0" y="0" width="50" height="44" rx="6" fill="url(#ivoryFace)"/>
    <rect x="0" y="0" width="50" height="44" rx="6" fill="#00FFEE" opacity="0.12"/>
    <text x="25" y="34" font-family="Georgia, serif" font-size="28" font-weight="bold"
          text-anchor="middle" fill="#1C0E00">N</text>
    <rect x="33" y="30" width="14" height="12" rx="2" fill="#0D0800" opacity="0.8"/>
    <text x="40" y="40" font-family="Georgia, serif" font-size="8" font-weight="bold"
          text-anchor="middle" fill="#C8922A">1</text>
  </g>

  <!-- ══ SURGE CORE — entry at top of column G ══ -->
  <circle cx="597" cy="120" r="24" fill="url(#surgeCore)" opacity="0.7" filter="url(#surgeCoreFx)"/>
  <circle cx="597" cy="120" r="13" fill="url(#surgeCore)" opacity="0.9" filter="url(#surgeCoreFx)"/>
  <circle cx="597" cy="120" r="5"  fill="#FFFFFF" opacity="1" filter="url(#surgeCoreFx)"/>
  <circle cx="597" cy="120" r="2"  fill="#FFFFFF"/>
  <!-- Entry ripple rings -->
  <ellipse cx="597" cy="120" rx="36" ry="16" fill="none"
           stroke="#00FFEE" stroke-width="1.8" opacity="0.4" filter="url(#arcFx)"/>
  <ellipse cx="597" cy="120" rx="56" ry="22" fill="none"
           stroke="#00AACC" stroke-width="1" opacity="0.2"/>

  <!-- Column labels — G highlighted teal -->
  <g font-family="Georgia, serif" font-size="15" font-weight="bold"
     text-anchor="middle" fill="#F5C842" filter="url(#goldLabelGlow)">
    <text x="189" y="112">A</text><text x="257" y="112">B</text><text x="325" y="112">C</text>
    <text x="393" y="112">D</text><text x="461" y="112">E</text><text x="529" y="112">F</text>
    <text x="597" y="112" fill="#00FFEE" filter="url(#tealLabelGlow)">G</text>
    <text x="665" y="112">H</text><text x="733" y="112">I</text><text x="801" y="112">J</text>
    <text x="189" y="700">A</text><text x="257" y="700">B</text><text x="325" y="700">C</text>
    <text x="393" y="700">D</text><text x="461" y="700">E</text><text x="529" y="700">F</text>
    <text x="597" y="700" fill="#00FFEE" filter="url(#tealLabelGlow)">G</text>
    <text x="665" y="700">H</text><text x="733" y="700">I</text><text x="801" y="700">J</text>
  </g>

  <!-- Row labels -->
  <g font-family="Georgia, serif" font-size="14" font-weight="bold"
     text-anchor="middle" dominant-baseline="middle" fill="#F5C842" filter="url(#goldLabelGlow)">
    <text x="140" y="148">1</text><text x="140" y="204">2</text><text x="140" y="260">3</text>
    <text x="140" y="316">4</text><text x="140" y="372">5</text><text x="140" y="428">6</text>
    <text x="140" y="484">7</text><text x="140" y="540">8</text>
    <text x="140" y="596">9</text><text x="137" y="652">10</text>
    <text x="850" y="148">1</text><text x="850" y="204">2</text><text x="850" y="260">3</text>
    <text x="850" y="316">4</text><text x="850" y="372">5</text><text x="850" y="428">6</text>
    <text x="850" y="484">7</text><text x="850" y="540">8</text>
    <text x="850" y="596">9</text><text x="853" y="652">10</text>
  </g>

  <!-- Corner brackets -->
  <g fill="url(#ironGrad)">
    <rect x="80" y="65" width="44" height="9" rx="2"/><rect x="80" y="65" width="9" height="44" rx="2"/>
    <rect x="796" y="65" width="44" height="9" rx="2"/><rect x="831" y="65" width="9" height="44" rx="2"/>
    <rect x="80" y="736" width="44" height="9" rx="2"/><rect x="80" y="700" width="9" height="44" rx="2"/>
    <rect x="796" y="736" width="44" height="9" rx="2"/><rect x="831" y="700" width="9" height="44" rx="2"/>
  </g>
  <g fill="#222230">
    <circle cx="102" cy="84" r="3.5"/><circle cx="94" cy="92" r="2.5"/>
    <circle cx="818" cy="84" r="3.5"/><circle cx="826" cy="92" r="2.5"/>
    <circle cx="102" cy="726" r="3.5"/><circle cx="94" cy="718" r="2.5"/>
    <circle cx="818" cy="726" r="3.5"/><circle cx="826" cy="718" r="2.5"/>
  </g>

  <!-- ══ RIGHT PANEL ══ -->
  <rect x="880" y="65" width="290" height="680" rx="8"
        fill="#0C0F18" opacity="0.95" filter="url(#boardShadow)"/>
  <rect x="880" y="65" width="290" height="680" rx="8"
        fill="none" stroke="#0A3A3A" stroke-width="1.5"/>

  <!-- Bomb card -->
  <rect x="900" y="85" width="250" height="160" rx="10" fill="url(#cardBg)"/>
  <rect x="900" y="85" width="250" height="160" rx="10"
        fill="none" stroke="#00FFEE" stroke-width="1.5" filter="url(#tealLabelGlow)" opacity="0.6"/>

  <!-- Tier badge -->
  <rect x="900" y="85" width="64" height="160" rx="10" fill="#031414" opacity="0.9"/>
  <rect x="936" y="85" width="28" height="160" fill="#031414" opacity="0.9"/>
  <text x="932" y="152" font-family="Georgia, serif" font-size="10"
        text-anchor="middle" fill="#0A6666" letter-spacing="2">TIER</text>
  <text x="932" y="182" font-family="Georgia, serif" font-size="32"
        font-weight="bold" text-anchor="middle" fill="#00FFEE"
        filter="url(#tealLabelGlow)">III</text>
  <line x1="966" y1="93" x2="966" y2="237" stroke="#00FFEE" stroke-width="1" opacity="0.25"/>

  <!-- Bomb name -->
  <text x="1093" y="122" font-family="Georgia, serif" font-size="30"
        font-weight="bold" text-anchor="middle" fill="#00FFEE"
        filter="url(#tealLabelGlow)" letter-spacing="3">SURGE</text>

  <!-- Word played -->
  <text x="1093" y="152" font-family="'Courier New', monospace" font-size="15"
        text-anchor="middle" fill="#FFFFFF" letter-spacing="8" opacity="0.75">S T O R M</text>

  <line x1="970" y1="163" x2="1140" y2="163" stroke="#00FFEE" stroke-width="0.8" opacity="0.25"/>

  <!-- Target -->
  <text x="1055" y="182" font-family="Georgia, serif" font-size="13"
        text-anchor="middle" fill="#00BBCC" opacity="0.9">Target Column</text>
  <text x="1055" y="210" font-family="Georgia, serif" font-size="28"
        font-weight="bold" text-anchor="middle" fill="#FFFFFF"
        filter="url(#tealLabelGlow)" letter-spacing="6">G</text>
  <text x="1055" y="232" font-family="Calibri, sans-serif" font-size="11"
        text-anchor="middle" fill="#007A88" opacity="0.85">5 letters spent</text>

  <!-- Reveal summary -->
  <line x1="900" y1="258" x2="1150" y2="258" stroke="#0A3A3A" stroke-width="1" opacity="0.6"/>
  <text x="1025" y="276" font-family="Georgia, serif" font-size="11"
        text-anchor="middle" fill="#0D6666" letter-spacing="3" opacity="0.9">COLUMN G  REVEALED</text>

  <!-- 10 row results listed -->
  <g font-family="'Courier New', monospace" font-size="12" dominant-baseline="middle">

    <!-- G1 empty -->
    <text x="910" y="300" fill="#2A5A5A" opacity="0.7">G1</text>
    <circle cx="950" cy="300" r="3" fill="#2A5A5A" opacity="0.5"/>
    <text x="965" y="300" fill="#2A5A5A" opacity="0.6">empty</text>

    <!-- G2 tile -->
    <text x="910" y="322" fill="#00FFEE" opacity="0.9">G2</text>
    <rect x="942" y="312" width="16" height="16" rx="3" fill="url(#ivoryFace)"/>
    <text x="950" y="322" font-family="Georgia, serif" font-size="11"
          font-weight="bold" text-anchor="middle" fill="#1C0E00">R</text>
    <text x="965" y="322" fill="#00FFEE" opacity="0.9">  TILE  R  ×1</text>

    <!-- G3 empty -->
    <text x="910" y="344" fill="#2A5A5A" opacity="0.7">G3</text>
    <circle cx="950" cy="344" r="3" fill="#2A5A5A" opacity="0.5"/>
    <text x="965" y="344" fill="#2A5A5A" opacity="0.6">empty</text>

    <!-- G4 empty -->
    <text x="910" y="366" fill="#2A5A5A" opacity="0.7">G4</text>
    <circle cx="950" cy="366" r="3" fill="#2A5A5A" opacity="0.5"/>
    <text x="965" y="366" fill="#2A5A5A" opacity="0.6">empty</text>

    <!-- G5 tile -->
    <text x="910" y="388" fill="#00FFEE" opacity="0.9">G5</text>
    <rect x="942" y="378" width="16" height="16" rx="3" fill="url(#ivoryFace)"/>
    <text x="950" y="388" font-family="Georgia, serif" font-size="11"
          font-weight="bold" text-anchor="middle" fill="#1C0E00">S</text>
    <text x="965" y="388" fill="#00FFEE" opacity="0.9">  TILE  S  ×1</text>

    <!-- G6 empty -->
    <text x="910" y="410" fill="#2A5A5A" opacity="0.7">G6</text>
    <circle cx="950" cy="410" r="3" fill="#2A5A5A" opacity="0.5"/>
    <text x="965" y="410" fill="#2A5A5A" opacity="0.6">empty</text>

    <!-- G7 tile uncommon -->
    <text x="910" y="432" fill="#00FFEE" opacity="0.9">G7</text>
    <rect x="942" y="422" width="16" height="16" rx="3" fill="url(#ivoryFace)"
          stroke="#00D4FF" stroke-width="1"/>
    <text x="950" y="432" font-family="Georgia, serif" font-size="11"
          font-weight="bold" text-anchor="middle" fill="#1C0E00">T</text>
    <text x="965" y="432" fill="#00D4FF" opacity="0.9">  TILE  T  ×2</text>

    <!-- G8 empty -->
    <text x="910" y="454" fill="#2A5A5A" opacity="0.7">G8</text>
    <circle cx="950" cy="454" r="3" fill="#2A5A5A" opacity="0.5"/>
    <text x="965" y="454" fill="#2A5A5A" opacity="0.6">empty</text>

    <!-- G9 empty -->
    <text x="910" y="476" fill="#2A5A5A" opacity="0.7">G9</text>
    <circle cx="950" cy="476" r="3" fill="#2A5A5A" opacity="0.5"/>
    <text x="965" y="476" fill="#2A5A5A" opacity="0.6">empty</text>

    <!-- G10 tile -->
    <text x="910" y="498" fill="#00FFEE" opacity="0.9">G10</text>
    <rect x="942" y="488" width="16" height="16" rx="3" fill="url(#ivoryFace)"/>
    <text x="950" y="498" font-family="Georgia, serif" font-size="11"
          font-weight="bold" text-anchor="middle" fill="#1C0E00">N</text>
    <text x="965" y="498" fill="#00FFEE" opacity="0.9">  TILE  N  ×1</text>
  </g>

  <!-- Result tally -->
  <line x1="900" y1="518" x2="1150" y2="518" stroke="#0A3A3A" stroke-width="1" opacity="0.6"/>
  <text x="910" y="538" font-family="'Courier New', monospace" font-size="11"
        fill="#007A88" opacity="0.8">4 tiles located  •  6 empty cells</text>
  <text x="910" y="556" font-family="'Courier New', monospace" font-size="11"
        fill="#007A88" opacity="0.8">Positions known. Harvest on next hit.</text>

  <!-- Effect description -->
  <line x1="900" y1="575" x2="1150" y2="575" stroke="#0A3A3A" stroke-width="1" opacity="0.5"/>
  <text x="1025" y="594" font-family="Georgia, serif" font-size="11"
        text-anchor="middle" fill="#0D6666" letter-spacing="3" opacity="0.8">EFFECT</text>
  <text x="1025" y="616" font-family="Calibri, sans-serif" font-size="12"
        text-anchor="middle" fill="#00BBCC" opacity="0.9">Full column scan — all positions</text>
  <text x="1025" y="632" font-family="Calibri, sans-serif" font-size="12"
        text-anchor="middle" fill="#00BBCC" opacity="0.9">revealed, tiles and empties both.</text>
  <text x="1025" y="655" font-family="Calibri, sans-serif" font-size="11"
        text-anchor="middle" fill="#006677" opacity="0.8">Tiles not yet harvested — still on grid.</text>
  <text x="1025" y="671" font-family="Calibri, sans-serif" font-size="11"
        text-anchor="middle" fill="#006677" opacity="0.8">Use FIRE actions to collect them next.</text>

  <!-- Asset note -->
  <line x1="900" y1="692" x2="1150" y2="692" stroke="#0A3A3A" stroke-width="1" opacity="0.4"/>
  <text x="1025" y="708" font-family="Georgia, serif" font-size="10"
        text-anchor="middle" fill="#0A4444" letter-spacing="2" opacity="0.7">STANDALONE ASSET</text>
  <text x="1025" y="724" font-family="Calibri, sans-serif" font-size="10"
        text-anchor="middle" fill="#0A3333" opacity="0.6">68 × 560px  •  full column overlay</text>
  <text x="1025" y="738" font-family="Calibri, sans-serif" font-size="10"
        text-anchor="middle" fill="#0A3333" opacity="0.5">reposition x per target column (A–J)</text>

  <!-- BG watermark -->
  <text x="495" y="420" font-family="Georgia, serif" font-size="130"
        font-weight="bold" text-anchor="middle" dominant-baseline="middle"
        fill="#00FFEE" opacity="0.018" letter-spacing="6">SURGE</text>

</svg>
