<svg xmlns="http://www.w3.org/2000/svg" viewBox="0 0 1100 460" width="1100" height="460">
<!--
  ============================================================
  LEXICON — TILE SET
  Tier: COMMON  (silver-grey border)
  Letters: E A I O R T N S
  Point value: 1 each

  DIMENSIONS:
  Grid cell:  70×70px (square, 10×10 board)
  Tile face:  64×64px (3px margin each side in cell)
  Tile base:  offset +4,+5 for 3D depth
  Corner radius: 8px

  PLACEMENT:
  translate(cellX + 3, cellY + 3) to centre in any 70×70 cell

  DESIGN SPEC:
  — Warm ivory gradient face
  — Grey border ring (#CCCCDD / #888899)
  — Grey tier pip top-left
  — Large bold Georgia serif letter, black, drop shadow
  — Score badge bottom-right: dark bg, gold numeral (1)
  — Inner engraved inset line
  — Bevel: highlight top-left / shadow bottom-right
  — Noise texture overlay
  — Tier label: COMMON in monospace at bottom strip
  ============================================================
-->
  <defs>
    <linearGradient id="pageBg" x1="0%" y1="0%" x2="100%" y2="100%">
      <stop offset="0%" style="stop-color:#0D1117"/>
      <stop offset="100%" style="stop-color:#080D13"/>
    </linearGradient>
    <linearGradient id="ivoryFace" x1="10%" y1="8%" x2="88%" y2="92%">
      <stop offset="0%"   style="stop-color:#F7EDD0"/>
      <stop offset="35%"  style="stop-color:#EDD9A3"/>
      <stop offset="75%"  style="stop-color:#D4B870"/>
      <stop offset="100%" style="stop-color:#B8963A"/>
    </linearGradient>
    <linearGradient id="bevelV" x1="0%" y1="0%" x2="0%" y2="100%">
      <stop offset="0%"   style="stop-color:#FFFFFF;stop-opacity:0.6"/>
      <stop offset="100%" style="stop-color:#FFFFFF;stop-opacity:0"/>
    </linearGradient>
    <linearGradient id="bevelH" x1="0%" y1="0%" x2="100%" y2="0%">
      <stop offset="0%"   style="stop-color:#FFFFFF;stop-opacity:0.55"/>
      <stop offset="100%" style="stop-color:#FFFFFF;stop-opacity:0"/>
    </linearGradient>
    <linearGradient id="shadowV" x1="0%" y1="0%" x2="0%" y2="100%">
      <stop offset="0%"   style="stop-color:#5A3A00;stop-opacity:0"/>
      <stop offset="100%" style="stop-color:#3A2000;stop-opacity:0.75"/>
    </linearGradient>
    <linearGradient id="shadowH" x1="0%" y1="0%" x2="100%" y2="0%">
      <stop offset="0%"   style="stop-color:#5A3A00;stop-opacity:0"/>
      <stop offset="100%" style="stop-color:#3A2000;stop-opacity:0.7"/>
    </linearGradient>
    <linearGradient id="tileBase" x1="0%" y1="0%" x2="100%" y2="100%">
      <stop offset="0%"   style="stop-color:#4A3000"/>
      <stop offset="100%" style="stop-color:#1A1000"/>
    </linearGradient>
    <linearGradient id="borderCommon" x1="0%" y1="0%" x2="100%" y2="100%">
      <stop offset="0%"   style="stop-color:#CCCCDD"/>
      <stop offset="50%"  style="stop-color:#AAAACC"/>
      <stop offset="100%" style="stop-color:#777788"/>
    </linearGradient>
    <linearGradient id="scoreBg" x1="0%" y1="0%" x2="100%" y2="100%">
      <stop offset="0%"   style="stop-color:#2A1800"/>
      <stop offset="100%" style="stop-color:#0D0800"/>
    </linearGradient>

    <filter id="letterDepth" x="-15%" y="-15%" width="130%" height="130%">
      <feDropShadow dx="1" dy="2" stdDeviation="2" flood-color="#1A0A00" flood-opacity="0.65"/>
    </filter>
    <filter id="tileDrop" x="-25%" y="-20%" width="160%" height="160%">
      <feDropShadow dx="5" dy="8" stdDeviation="10" flood-color="#000000" flood-opacity="0.65"/>
    </filter>
    <filter id="noise">
      <feTurbulence type="fractalNoise" baseFrequency="0.85" numOctaves="4" result="n"/>
      <feColorMatrix type="saturate" values="0" in="n" result="g"/>
      <feBlend in="SourceGraphic" in2="g" mode="multiply" result="b"/>
      <feComposite in="b" in2="SourceGraphic" operator="in"/>
    </filter>

    <!-- One shared clip path reused via transform -->
    <clipPath id="tileClip"><rect width="64" height="64" rx="8"/></clipPath>

    <pattern id="grain" x="0" y="0" width="1100" height="20" patternUnits="userSpaceOnUse">
      <line x1="0" y1="10" x2="1100" y2="10" stroke="#FFFFFF" stroke-width="0.3" opacity="0.02"/>
    </pattern>
  </defs>

  <!-- PAGE BG -->
  <rect width="1100" height="460" fill="url(#pageBg)"/>
  <rect width="1100" height="460" fill="url(#grain)"/>

  <!-- Header -->
  <text x="550" y="36" font-family="Georgia, serif" font-size="11"
        text-anchor="middle" fill="#6B4F1A" letter-spacing="5" opacity="0.8">LEXICON  —  COMMON TIER  —  64×64px</text>
  <line x1="80" y1="44" x2="1020" y2="44" stroke="#3A2A08" stroke-width="1" opacity="0.5"/>

  <!-- Reference grid cell ghost (70×70) and tile labels -->
  <!-- Row 1: 4 tiles  y_cell=70, tile_y=73
       Cols: A=90  B=220  C=350  D=480
       Row 2: 4 tiles  y_cell=260, tile_y=263
       Cols: E=90  F=220  G=350  H=480  ... extended to 680 -->

  <!-- ═══════════════════════ ROW 1 ═══════════════════════ -->

  <!-- ── TILE E ── translate(93, 73) -->
  <g transform="translate(93,73)" filter="url(#tileDrop)">
    <!-- 3D base -->
    <rect x="4" y="5" width="64" height="64" rx="8" fill="url(#tileBase)" opacity="0.85"/>
    <!-- Border ring -->
    <rect x="-2" y="-2" width="68" height="68" rx="10"
          fill="none" stroke="url(#borderCommon)" stroke-width="3.5"/>
    <!-- Face -->
    <rect x="0" y="0" width="64" height="64" rx="8" fill="url(#ivoryFace)"/>
    <!-- Noise -->
    <rect x="0" y="0" width="64" height="64" rx="8"
          fill="url(#ivoryFace)" filter="url(#noise)" opacity="0.2" clip-path="url(#tileClip)"/>
    <!-- Bevel top -->
    <rect x="0" y="0" width="64" height="18" rx="8"
          fill="url(#bevelV)" clip-path="url(#tileClip)" opacity="0.65"/>
    <!-- Bevel left -->
    <rect x="0" y="0" width="18" height="64" rx="8"
          fill="url(#bevelH)" clip-path="url(#tileClip)" opacity="0.5"/>
    <!-- Shadow bottom -->
    <rect x="0" y="46" width="64" height="18" rx="8"
          fill="url(#shadowV)" clip-path="url(#tileClip)" opacity="0.75"/>
    <!-- Shadow right -->
    <rect x="46" y="0" width="18" height="64" rx="8"
          fill="url(#shadowH)" clip-path="url(#tileClip)" opacity="0.65"/>
    <!-- Inner inset line -->
    <rect x="5" y="5" width="54" height="54" rx="5"
          fill="none" stroke="#A07830" stroke-width="1" opacity="0.4"/>
    <!-- Letter -->
    <text x="32" y="50" font-family="Georgia,'Times New Roman',serif"
          font-size="42" font-weight="bold" text-anchor="middle"
          fill="#1C0E00" filter="url(#letterDepth)">E</text>
    <!-- Score badge -->
    <rect x="44" y="46" width="16" height="14" rx="3" fill="url(#scoreBg)" opacity="0.9"/>
    <text x="52" y="57" font-family="Georgia,serif" font-size="10" font-weight="bold"
          text-anchor="middle" fill="#C8922A">1</text>
    <!-- Tier pip -->
    <circle cx="10" cy="10" r="5" fill="#666677" opacity="0.85"/>
    <circle cx="10" cy="10" r="3" fill="#AAAACC" opacity="0.7"/>
    <!-- Label strip -->
    <rect x="0" y="54" width="64" height="10" fill="#0A0800" opacity="0.2" clip-path="url(#tileClip)"/>
    <text x="32" y="62" font-family="'Courier New',monospace" font-size="7" font-weight="bold"
          text-anchor="middle" fill="#8A7040" letter-spacing="2">COMMON</text>
  </g>
  <text x="125" y="160" font-family="Georgia,serif" font-size="13"
        text-anchor="middle" fill="#8B7040" opacity="0.7">E  · 1pt</text>

  <!-- ── TILE A ── translate(223, 73) -->
  <g transform="translate(223,73)" filter="url(#tileDrop)">
    <rect x="4" y="5" width="64" height="64" rx="8" fill="url(#tileBase)" opacity="0.85"/>
    <rect x="-2" y="-2" width="68" height="68" rx="10"
          fill="none" stroke="url(#borderCommon)" stroke-width="3.5"/>
    <rect x="0" y="0" width="64" height="64" rx="8" fill="url(#ivoryFace)"/>
    <rect x="0" y="0" width="64" height="64" rx="8"
          fill="url(#ivoryFace)" filter="url(#noise)" opacity="0.2" clip-path="url(#tileClip)"/>
    <rect x="0" y="0" width="64" height="18" rx="8"
          fill="url(#bevelV)" clip-path="url(#tileClip)" opacity="0.65"/>
    <rect x="0" y="0" width="18" height="64" rx="8"
          fill="url(#bevelH)" clip-path="url(#tileClip)" opacity="0.5"/>
    <rect x="0" y="46" width="64" height="18" rx="8"
          fill="url(#shadowV)" clip-path="url(#tileClip)" opacity="0.75"/>
    <rect x="46" y="0" width="18" height="64" rx="8"
          fill="url(#shadowH)" clip-path="url(#tileClip)" opacity="0.65"/>
    <rect x="5" y="5" width="54" height="54" rx="5"
          fill="none" stroke="#A07830" stroke-width="1" opacity="0.4"/>
    <text x="32" y="50" font-family="Georgia,'Times New Roman',serif"
          font-size="42" font-weight="bold" text-anchor="middle"
          fill="#1C0E00" filter="url(#letterDepth)">A</text>
    <rect x="44" y="46" width="16" height="14" rx="3" fill="url(#scoreBg)" opacity="0.9"/>
    <text x="52" y="57" font-family="Georgia,serif" font-size="10" font-weight="bold"
          text-anchor="middle" fill="#C8922A">1</text>
    <circle cx="10" cy="10" r="5" fill="#666677" opacity="0.85"/>
    <circle cx="10" cy="10" r="3" fill="#AAAACC" opacity="0.7"/>
    <rect x="0" y="54" width="64" height="10" fill="#0A0800" opacity="0.2" clip-path="url(#tileClip)"/>
    <text x="32" y="62" font-family="'Courier New',monospace" font-size="7" font-weight="bold"
          text-anchor="middle" fill="#8A7040" letter-spacing="2">COMMON</text>
  </g>
  <text x="255" y="160" font-family="Georgia,serif" font-size="13"
        text-anchor="middle" fill="#8B7040" opacity="0.7">A  · 1pt</text>

  <!-- ── TILE I ── translate(353, 73) -->
  <g transform="translate(353,73)" filter="url(#tileDrop)">
    <rect x="4" y="5" width="64" height="64" rx="8" fill="url(#tileBase)" opacity="0.85"/>
    <rect x="-2" y="-2" width="68" height="68" rx="10"
          fill="none" stroke="url(#borderCommon)" stroke-width="3.5"/>
    <rect x="0" y="0" width="64" height="64" rx="8" fill="url(#ivoryFace)"/>
    <rect x="0" y="0" width="64" height="64" rx="8"
          fill="url(#ivoryFace)" filter="url(#noise)" opacity="0.2" clip-path="url(#tileClip)"/>
    <rect x="0" y="0" width="64" height="18" rx="8"
          fill="url(#bevelV)" clip-path="url(#tileClip)" opacity="0.65"/>
    <rect x="0" y="0" width="18" height="64" rx="8"
          fill="url(#bevelH)" clip-path="url(#tileClip)" opacity="0.5"/>
    <rect x="0" y="46" width="64" height="18" rx="8"
          fill="url(#shadowV)" clip-path="url(#tileClip)" opacity="0.75"/>
    <rect x="46" y="0" width="18" height="64" rx="8"
          fill="url(#shadowH)" clip-path="url(#tileClip)" opacity="0.65"/>
    <rect x="5" y="5" width="54" height="54" rx="5"
          fill="none" stroke="#A07830" stroke-width="1" opacity="0.4"/>
    <text x="32" y="50" font-family="Georgia,'Times New Roman',serif"
          font-size="42" font-weight="bold" text-anchor="middle"
          fill="#1C0E00" filter="url(#letterDepth)">I</text>
    <rect x="44" y="46" width="16" height="14" rx="3" fill="url(#scoreBg)" opacity="0.9"/>
    <text x="52" y="57" font-family="Georgia,serif" font-size="10" font-weight="bold"
          text-anchor="middle" fill="#C8922A">1</text>
    <circle cx="10" cy="10" r="5" fill="#666677" opacity="0.85"/>
    <circle cx="10" cy="10" r="3" fill="#AAAACC" opacity="0.7"/>
    <rect x="0" y="54" width="64" height="10" fill="#0A0800" opacity="0.2" clip-path="url(#tileClip)"/>
    <text x="32" y="62" font-family="'Courier New',monospace" font-size="7" font-weight="bold"
          text-anchor="middle" fill="#8A7040" letter-spacing="2">COMMON</text>
  </g>
  <text x="385" y="160" font-family="Georgia,serif" font-size="13"
        text-anchor="middle" fill="#8B7040" opacity="0.7">I  · 1pt</text>

  <!-- ── TILE O ── translate(483, 73) -->
  <g transform="translate(483,73)" filter="url(#tileDrop)">
    <rect x="4" y="5" width="64" height="64" rx="8" fill="url(#tileBase)" opacity="0.85"/>
    <rect x="-2" y="-2" width="68" height="68" rx="10"
          fill="none" stroke="url(#borderCommon)" stroke-width="3.5"/>
    <rect x="0" y="0" width="64" height="64" rx="8" fill="url(#ivoryFace)"/>
    <rect x="0" y="0" width="64" height="64" rx="8"
          fill="url(#ivoryFace)" filter="url(#noise)" opacity="0.2" clip-path="url(#tileClip)"/>
    <rect x="0" y="0" width="64" height="18" rx="8"
          fill="url(#bevelV)" clip-path="url(#tileClip)" opacity="0.65"/>
    <rect x="0" y="0" width="18" height="64" rx="8"
          fill="url(#bevelH)" clip-path="url(#tileClip)" opacity="0.5"/>
    <rect x="0" y="46" width="64" height="18" rx="8"
          fill="url(#shadowV)" clip-path="url(#tileClip)" opacity="0.75"/>
    <rect x="46" y="0" width="18" height="64" rx="8"
          fill="url(#shadowH)" clip-path="url(#tileClip)" opacity="0.65"/>
    <rect x="5" y="5" width="54" height="54" rx="5"
          fill="none" stroke="#A07830" stroke-width="1" opacity="0.4"/>
    <text x="32" y="50" font-family="Georgia,'Times New Roman',serif"
          font-size="42" font-weight="bold" text-anchor="middle"
          fill="#1C0E00" filter="url(#letterDepth)">O</text>
    <rect x="44" y="46" width="16" height="14" rx="3" fill="url(#scoreBg)" opacity="0.9"/>
    <text x="52" y="57" font-family="Georgia,serif" font-size="10" font-weight="bold"
          text-anchor="middle" fill="#C8922A">1</text>
    <circle cx="10" cy="10" r="5" fill="#666677" opacity="0.85"/>
    <circle cx="10" cy="10" r="3" fill="#AAAACC" opacity="0.7"/>
    <rect x="0" y="54" width="64" height="10" fill="#0A0800" opacity="0.2" clip-path="url(#tileClip)"/>
    <text x="32" y="62" font-family="'Courier New',monospace" font-size="7" font-weight="bold"
          text-anchor="middle" fill="#8A7040" letter-spacing="2">COMMON</text>
  </g>
  <text x="515" y="160" font-family="Georgia,serif" font-size="13"
        text-anchor="middle" fill="#8B7040" opacity="0.7">O  · 1pt</text>

  <!-- ── TILE R ── translate(613, 73) -->
  <g transform="translate(613,73)" filter="url(#tileDrop)">
    <rect x="4" y="5" width="64" height="64" rx="8" fill="url(#tileBase)" opacity="0.85"/>
    <rect x="-2" y="-2" width="68" height="68" rx="10"
          fill="none" stroke="url(#borderCommon)" stroke-width="3.5"/>
    <rect x="0" y="0" width="64" height="64" rx="8" fill="url(#ivoryFace)"/>
    <rect x="0" y="0" width="64" height="64" rx="8"
          fill="url(#ivoryFace)" filter="url(#noise)" opacity="0.2" clip-path="url(#tileClip)"/>
    <rect x="0" y="0" width="64" height="18" rx="8"
          fill="url(#bevelV)" clip-path="url(#tileClip)" opacity="0.65"/>
    <rect x="0" y="0" width="18" height="64" rx="8"
          fill="url(#bevelH)" clip-path="url(#tileClip)" opacity="0.5"/>
    <rect x="0" y="46" width="64" height="18" rx="8"
          fill="url(#shadowV)" clip-path="url(#tileClip)" opacity="0.75"/>
    <rect x="46" y="0" width="18" height="64" rx="8"
          fill="url(#shadowH)" clip-path="url(#tileClip)" opacity="0.65"/>
    <rect x="5" y="5" width="54" height="54" rx="5"
          fill="none" stroke="#A07830" stroke-width="1" opacity="0.4"/>
    <text x="32" y="50" font-family="Georgia,'Times New Roman',serif"
          font-size="42" font-weight="bold" text-anchor="middle"
          fill="#1C0E00" filter="url(#letterDepth)">R</text>
    <rect x="44" y="46" width="16" height="14" rx="3" fill="url(#scoreBg)" opacity="0.9"/>
    <text x="52" y="57" font-family="Georgia,serif" font-size="10" font-weight="bold"
          text-anchor="middle" fill="#C8922A">1</text>
    <circle cx="10" cy="10" r="5" fill="#666677" opacity="0.85"/>
    <circle cx="10" cy="10" r="3" fill="#AAAACC" opacity="0.7"/>
    <rect x="0" y="54" width="64" height="10" fill="#0A0800" opacity="0.2" clip-path="url(#tileClip)"/>
    <text x="32" y="62" font-family="'Courier New',monospace" font-size="7" font-weight="bold"
          text-anchor="middle" fill="#8A7040" letter-spacing="2">COMMON</text>
  </g>
  <text x="645" y="160" font-family="Georgia,serif" font-size="13"
        text-anchor="middle" fill="#8B7040" opacity="0.7">R  · 1pt</text>

  <!-- ── TILE T ── translate(743, 73) -->
  <g transform="translate(743,73)" filter="url(#tileDrop)">
    <rect x="4" y="5" width="64" height="64" rx="8" fill="url(#tileBase)" opacity="0.85"/>
    <rect x="-2" y="-2" width="68" height="68" rx="10"
          fill="none" stroke="url(#borderCommon)" stroke-width="3.5"/>
    <rect x="0" y="0" width="64" height="64" rx="8" fill="url(#ivoryFace)"/>
    <rect x="0" y="0" width="64" height="64" rx="8"
          fill="url(#ivoryFace)" filter="url(#noise)" opacity="0.2" clip-path="url(#tileClip)"/>
    <rect x="0" y="0" width="64" height="18" rx="8"
          fill="url(#bevelV)" clip-path="url(#tileClip)" opacity="0.65"/>
    <rect x="0" y="0" width="18" height="64" rx="8"
          fill="url(#bevelH)" clip-path="url(#tileClip)" opacity="0.5"/>
    <rect x="0" y="46" width="64" height="18" rx="8"
          fill="url(#shadowV)" clip-path="url(#tileClip)" opacity="0.75"/>
    <rect x="46" y="0" width="18" height="64" rx="8"
          fill="url(#shadowH)" clip-path="url(#tileClip)" opacity="0.65"/>
    <rect x="5" y="5" width="54" height="54" rx="5"
          fill="none" stroke="#A07830" stroke-width="1" opacity="0.4"/>
    <text x="32" y="50" font-family="Georgia,'Times New Roman',serif"
          font-size="42" font-weight="bold" text-anchor="middle"
          fill="#1C0E00" filter="url(#letterDepth)">T</text>
    <rect x="44" y="46" width="16" height="14" rx="3" fill="url(#scoreBg)" opacity="0.9"/>
    <text x="52" y="57" font-family="Georgia,serif" font-size="10" font-weight="bold"
          text-anchor="middle" fill="#C8922A">1</text>
    <circle cx="10" cy="10" r="5" fill="#666677" opacity="0.85"/>
    <circle cx="10" cy="10" r="3" fill="#AAAACC" opacity="0.7"/>
    <rect x="0" y="54" width="64" height="10" fill="#0A0800" opacity="0.2" clip-path="url(#tileClip)"/>
    <text x="32" y="62" font-family="'Courier New',monospace" font-size="7" font-weight="bold"
          text-anchor="middle" fill="#8A7040" letter-spacing="2">COMMON</text>
  </g>
  <text x="775" y="160" font-family="Georgia,serif" font-size="13"
        text-anchor="middle" fill="#8B7040" opacity="0.7">T  · 1pt</text>

  <!-- ── TILE N ── translate(873, 73) -->
  <g transform="translate(873,73)" filter="url(#tileDrop)">
    <rect x="4" y="5" width="64" height="64" rx="8" fill="url(#tileBase)" opacity="0.85"/>
    <rect x="-2" y="-2" width="68" height="68" rx="10"
          fill="none" stroke="url(#borderCommon)" stroke-width="3.5"/>
    <rect x="0" y="0" width="64" height="64" rx="8" fill="url(#ivoryFace)"/>
    <rect x="0" y="0" width="64" height="64" rx="8"
          fill="url(#ivoryFace)" filter="url(#noise)" opacity="0.2" clip-path="url(#tileClip)"/>
    <rect x="0" y="0" width="64" height="18" rx="8"
          fill="url(#bevelV)" clip-path="url(#tileClip)" opacity="0.65"/>
    <rect x="0" y="0" width="18" height="64" rx="8"
          fill="url(#bevelH)" clip-path="url(#tileClip)" opacity="0.5"/>
    <rect x="0" y="46" width="64" height="18" rx="8"
          fill="url(#shadowV)" clip-path="url(#tileClip)" opacity="0.75"/>
    <rect x="46" y="0" width="18" height="64" rx="8"
          fill="url(#shadowH)" clip-path="url(#tileClip)" opacity="0.65"/>
    <rect x="5" y="5" width="54" height="54" rx="5"
          fill="none" stroke="#A07830" stroke-width="1" opacity="0.4"/>
    <text x="32" y="50" font-family="Georgia,'Times New Roman',serif"
          font-size="42" font-weight="bold" text-anchor="middle"
          fill="#1C0E00" filter="url(#letterDepth)">N</text>
    <rect x="44" y="46" width="16" height="14" rx="3" fill="url(#scoreBg)" opacity="0.9"/>
    <text x="52" y="57" font-family="Georgia,serif" font-size="10" font-weight="bold"
          text-anchor="middle" fill="#C8922A">1</text>
    <circle cx="10" cy="10" r="5" fill="#666677" opacity="0.85"/>
    <circle cx="10" cy="10" r="3" fill="#AAAACC" opacity="0.7"/>
    <rect x="0" y="54" width="64" height="10" fill="#0A0800" opacity="0.2" clip-path="url(#tileClip)"/>
    <text x="32" y="62" font-family="'Courier New',monospace" font-size="7" font-weight="bold"
          text-anchor="middle" fill="#8A7040" letter-spacing="2">COMMON</text>
  </g>
  <text x="905" y="160" font-family="Georgia,serif" font-size="13"
        text-anchor="middle" fill="#8B7040" opacity="0.7">N  · 1pt</text>

  <!-- ── TILE S ── translate(1003, 73) -->
  <g transform="translate(1003,73)" filter="url(#tileDrop)">
    <rect x="4" y="5" width="64" height="64" rx="8" fill="url(#tileBase)" opacity="0.85"/>
    <rect x="-2" y="-2" width="68" height="68" rx="10"
          fill="none" stroke="url(#borderCommon)" stroke-width="3.5"/>
    <rect x="0" y="0" width="64" height="64" rx="8" fill="url(#ivoryFace)"/>
    <rect x="0" y="0" width="64" height="64" rx="8"
          fill="url(#ivoryFace)" filter="url(#noise)" opacity="0.2" clip-path="url(#tileClip)"/>
    <rect x="0" y="0" width="64" height="18" rx="8"
          fill="url(#bevelV)" clip-path="url(#tileClip)" opacity="0.65"/>
    <rect x="0" y="0" width="18" height="64" rx="8"
          fill="url(#bevelH)" clip-path="url(#tileClip)" opacity="0.5"/>
    <rect x="0" y="46" width="64" height="18" rx="8"
          fill="url(#shadowV)" clip-path="url(#tileClip)" opacity="0.75"/>
    <rect x="46" y="0" width="18" height="64" rx="8"
          fill="url(#shadowH)" clip-path="url(#tileClip)" opacity="0.65"/>
    <rect x="5" y="5" width="54" height="54" rx="5"
          fill="none" stroke="#A07830" stroke-width="1" opacity="0.4"/>
    <text x="32" y="50" font-family="Georgia,'Times New Roman',serif"
          font-size="42" font-weight="bold" text-anchor="middle"
          fill="#1C0E00" filter="url(#letterDepth)">S</text>
    <rect x="44" y="46" width="16" height="14" rx="3" fill="url(#scoreBg)" opacity="0.9"/>
    <text x="52" y="57" font-family="Georgia,serif" font-size="10" font-weight="bold"
          text-anchor="middle" fill="#C8922A">1</text>
    <circle cx="10" cy="10" r="5" fill="#666677" opacity="0.85"/>
    <circle cx="10" cy="10" r="3" fill="#AAAACC" opacity="0.7"/>
    <rect x="0" y="54" width="64" height="10" fill="#0A0800" opacity="0.2" clip-path="url(#tileClip)"/>
    <text x="32" y="62" font-family="'Courier New',monospace" font-size="7" font-weight="bold"
          text-anchor="middle" fill="#8A7040" letter-spacing="2">COMMON</text>
  </g>
  <text x="1035" y="160" font-family="Georgia,serif" font-size="13"
        text-anchor="middle" fill="#8B7040" opacity="0.7">S  · 1pt</text>

  <!-- Divider -->
  <line x1="80" y1="182" x2="1020" y2="182" stroke="#2A1A08" stroke-width="1" opacity="0.4"/>

  <!-- ═══════════════ DEMO: tile dropped into 70×70 reference cells ═══════════════ -->
  <text x="550" y="210" font-family="Georgia,serif" font-size="11"
        text-anchor="middle" fill="#6B4F1A" letter-spacing="4" opacity="0.6">IN-GRID REFERENCE  —  70×70px CELL</text>

  <!-- Ghost cell borders -->
  <g fill="none" stroke="#C8922A" stroke-width="1" opacity="0.25" stroke-dasharray="4,3">
    <rect x="93"  y="230" width="70" height="70" rx="2"/>
    <rect x="223" y="230" width="70" height="70" rx="2"/>
    <rect x="353" y="230" width="70" height="70" rx="2"/>
    <rect x="483" y="230" width="70" height="70" rx="2"/>
    <rect x="613" y="230" width="70" height="70" rx="2"/>
    <rect x="743" y="230" width="70" height="70" rx="2"/>
    <rect x="873" y="230" width="70" height="70" rx="2"/>
    <rect x="1003" y="230" width="70" height="70" rx="2"/>
  </g>

  <!-- Tiles inside reference cells (translate = cellX+3, cellY+3) -->
  <g transform="translate(96,233)">
    <rect x="4" y="5" width="64" height="64" rx="8" fill="url(#tileBase)" opacity="0.85"/>
    <rect x="-2" y="-2" width="68" height="68" rx="10" fill="none" stroke="url(#borderCommon)" stroke-width="3.5"/>
    <rect x="0" y="0" width="64" height="64" rx="8" fill="url(#ivoryFace)"/>
    <rect x="0" y="0" width="64" height="18" rx="8" fill="url(#bevelV)" clip-path="url(#tileClip)" opacity="0.65"/>
    <rect x="0" y="0" width="18" height="64" rx="8" fill="url(#bevelH)" clip-path="url(#tileClip)" opacity="0.5"/>
    <rect x="0" y="46" width="64" height="18" rx="8" fill="url(#shadowV)" clip-path="url(#tileClip)" opacity="0.75"/>
    <rect x="46" y="0" width="18" height="64" rx="8" fill="url(#shadowH)" clip-path="url(#tileClip)" opacity="0.65"/>
    <rect x="5" y="5" width="54" height="54" rx="5" fill="none" stroke="#A07830" stroke-width="1" opacity="0.4"/>
    <text x="32" y="50" font-family="Georgia,'Times New Roman',serif" font-size="42" font-weight="bold"
          text-anchor="middle" fill="#1C0E00" filter="url(#letterDepth)">E</text>
    <rect x="44" y="46" width="16" height="14" rx="3" fill="url(#scoreBg)" opacity="0.9"/>
    <text x="52" y="57" font-family="Georgia,serif" font-size="10" font-weight="bold" text-anchor="middle" fill="#C8922A">1</text>
    <circle cx="10" cy="10" r="5" fill="#666677" opacity="0.85"/>
    <circle cx="10" cy="10" r="3" fill="#AAAACC" opacity="0.7"/>
  </g>

  <g transform="translate(226,233)">
    <rect x="4" y="5" width="64" height="64" rx="8" fill="url(#tileBase)" opacity="0.85"/>
    <rect x="-2" y="-2" width="68" height="68" rx="10" fill="none" stroke="url(#borderCommon)" stroke-width="3.5"/>
    <rect x="0" y="0" width="64" height="64" rx="8" fill="url(#ivoryFace)"/>
    <rect x="0" y="0" width="64" height="18" rx="8" fill="url(#bevelV)" clip-path="url(#tileClip)" opacity="0.65"/>
    <rect x="0" y="0" width="18" height="64" rx="8" fill="url(#bevelH)" clip-path="url(#tileClip)" opacity="0.5"/>
    <rect x="0" y="46" width="64" height="18" rx="8" fill="url(#shadowV)" clip-path="url(#tileClip)" opacity="0.75"/>
    <rect x="46" y="0" width="18" height="64" rx="8" fill="url(#shadowH)" clip-path="url(#tileClip)" opacity="0.65"/>
    <rect x="5" y="5" width="54" height="54" rx="5" fill="none" stroke="#A07830" stroke-width="1" opacity="0.4"/>
    <text x="32" y="50" font-family="Georgia,'Times New Roman',serif" font-size="42" font-weight="bold"
          text-anchor="middle" fill="#1C0E00" filter="url(#letterDepth)">A</text>
    <rect x="44" y="46" width="16" height="14" rx="3" fill="url(#scoreBg)" opacity="0.9"/>
    <text x="52" y="57" font-family="Georgia,serif" font-size="10" font-weight="bold" text-anchor="middle" fill="#C8922A">1</text>
    <circle cx="10" cy="10" r="5" fill="#666677" opacity="0.85"/>
    <circle cx="10" cy="10" r="3" fill="#AAAACC" opacity="0.7"/>
  </g>

  <g transform="translate(356,233)">
    <rect x="4" y="5" width="64" height="64" rx="8" fill="url(#tileBase)" opacity="0.85"/>
    <rect x="-2" y="-2" width="68" height="68" rx="10" fill="none" stroke="url(#borderCommon)" stroke-width="3.5"/>
    <rect x="0" y="0" width="64" height="64" rx="8" fill="url(#ivoryFace)"/>
    <rect x="0" y="0" width="64" height="18" rx="8" fill="url(#bevelV)" clip-path="url(#tileClip)" opacity="0.65"/>
    <rect x="0" y="0" width="18" height="64" rx="8" fill="url(#bevelH)" clip-path="url(#tileClip)" opacity="0.5"/>
    <rect x="0" y="46" width="64" height="18" rx="8" fill="url(#shadowV)" clip-path="url(#tileClip)" opacity="0.75"/>
    <rect x="46" y="0" width="18" height="64" rx="8" fill="url(#shadowH)" clip-path="url(#tileClip)" opacity="0.65"/>
    <rect x="5" y="5" width="54" height="54" rx="5" fill="none" stroke="#A07830" stroke-width="1" opacity="0.4"/>
    <text x="32" y="50" font-family="Georgia,'Times New Roman',serif" font-size="42" font-weight="bold"
          text-anchor="middle" fill="#1C0E00" filter="url(#letterDepth)">I</text>
    <rect x="44" y="46" width="16" height="14" rx="3" fill="url(#scoreBg)" opacity="0.9"/>
    <text x="52" y="57" font-family="Georgia,serif" font-size="10" font-weight="bold" text-anchor="middle" fill="#C8922A">1</text>
    <circle cx="10" cy="10" r="5" fill="#666677" opacity="0.85"/>
    <circle cx="10" cy="10" r="3" fill="#AAAACC" opacity="0.7"/>
  </g>

  <g transform="translate(486,233)">
    <rect x="4" y="5" width="64" height="64" rx="8" fill="url(#tileBase)" opacity="0.85"/>
    <rect x="-2" y="-2" width="68" height="68" rx="10" fill="none" stroke="url(#borderCommon)" stroke-width="3.5"/>
    <rect x="0" y="0" width="64" height="64" rx="8" fill="url(#ivoryFace)"/>
    <rect x="0" y="0" width="64" height="18" rx="8" fill="url(#bevelV)" clip-path="url(#tileClip)" opacity="0.65"/>
    <rect x="0" y="0" width="18" height="64" rx="8" fill="url(#bevelH)" clip-path="url(#tileClip)" opacity="0.5"/>
    <rect x="0" y="46" width="64" height="18" rx="8" fill="url(#shadowV)" clip-path="url(#tileClip)" opacity="0.75"/>
    <rect x="46" y="0" width="18" height="64" rx="8" fill="url(#shadowH)" clip-path="url(#tileClip)" opacity="0.65"/>
    <rect x="5" y="5" width="54" height="54" rx="5" fill="none" stroke="#A07830" stroke-width="1" opacity="0.4"/>
    <text x="32" y="50" font-family="Georgia,'Times New Roman',serif" font-size="42" font-weight="bold"
          text-anchor="middle" fill="#1C0E00" filter="url(#letterDepth)">O</text>
    <rect x="44" y="46" width="16" height="14" rx="3" fill="url(#scoreBg)" opacity="0.9"/>
    <text x="52" y="57" font-family="Georgia,serif" font-size="10" font-weight="bold" text-anchor="middle" fill="#C8922A">1</text>
    <circle cx="10" cy="10" r="5" fill="#666677" opacity="0.85"/>
    <circle cx="10" cy="10" r="3" fill="#AAAACC" opacity="0.7"/>
  </g>

  <g transform="translate(616,233)">
    <rect x="4" y="5" width="64" height="64" rx="8" fill="url(#tileBase)" opacity="0.85"/>
    <rect x="-2" y="-2" width="68" height="68" rx="10" fill="none" stroke="url(#borderCommon)" stroke-width="3.5"/>
    <rect x="0" y="0" width="64" height="64" rx="8" fill="url(#ivoryFace)"/>
    <rect x="0" y="0" width="64" height="18" rx="8" fill="url(#bevelV)" clip-path="url(#tileClip)" opacity="0.65"/>
    <rect x="0" y="0" width="18" height="64" rx="8" fill="url(#bevelH)" clip-path="url(#tileClip)" opacity="0.5"/>
    <rect x="0" y="46" width="64" height="18" rx="8" fill="url(#shadowV)" clip-path="url(#tileClip)" opacity="0.75"/>
    <rect x="46" y="0" width="18" height="64" rx="8" fill="url(#shadowH)" clip-path="url(#tileClip)" opacity="0.65"/>
    <rect x="5" y="5" width="54" height="54" rx="5" fill="none" stroke="#A07830" stroke-width="1" opacity="0.4"/>
    <text x="32" y="50" font-family="Georgia,'Times New Roman',serif" font-size="42" font-weight="bold"
          text-anchor="middle" fill="#1C0E00" filter="url(#letterDepth)">R</text>
    <rect x="44" y="46" width="16" height="14" rx="3" fill="url(#scoreBg)" opacity="0.9"/>
    <text x="52" y="57" font-family="Georgia,serif" font-size="10" font-weight="bold" text-anchor="middle" fill="#C8922A">1</text>
    <circle cx="10" cy="10" r="5" fill="#666677" opacity="0.85"/>
    <circle cx="10" cy="10" r="3" fill="#AAAACC" opacity="0.7"/>
  </g>

  <g transform="translate(746,233)">
    <rect x="4" y="5" width="64" height="64" rx="8" fill="url(#tileBase)" opacity="0.85"/>
    <rect x="-2" y="-2" width="68" height="68" rx="10" fill="none" stroke="url(#borderCommon)" stroke-width="3.5"/>
    <rect x="0" y="0" width="64" height="64" rx="8" fill="url(#ivoryFace)"/>
    <rect x="0" y="0" width="64" height="18" rx="8" fill="url(#bevelV)" clip-path="url(#tileClip)" opacity="0.65"/>
    <rect x="0" y="0" width="18" height="64" rx="8" fill="url(#bevelH)" clip-path="url(#tileClip)" opacity="0.5"/>
    <rect x="0" y="46" width="64" height="18" rx="8" fill="url(#shadowV)" clip-path="url(#tileClip)" opacity="0.75"/>
    <rect x="46" y="0" width="18" height="64" rx="8" fill="url(#shadowH)" clip-path="url(#tileClip)" opacity="0.65"/>
    <rect x="5" y="5" width="54" height="54" rx="5" fill="none" stroke="#A07830" stroke-width="1" opacity="0.4"/>
    <text x="32" y="50" font-family="Georgia,'Times New Roman',serif" font-size="42" font-weight="bold"
          text-anchor="middle" fill="#1C0E00" filter="url(#letterDepth)">T</text>
    <rect x="44" y="46" width="16" height="14" rx="3" fill="url(#scoreBg)" opacity="0.9"/>
    <text x="52" y="57" font-family="Georgia,serif" font-size="10" font-weight="bold" text-anchor="middle" fill="#C8922A">1</text>
    <circle cx="10" cy="10" r="5" fill="#666677" opacity="0.85"/>
    <circle cx="10" cy="10" r="3" fill="#AAAACC" opacity="0.7"/>
  </g>

  <g transform="translate(876,233)">
    <rect x="4" y="5" width="64" height="64" rx="8" fill="url(#tileBase)" opacity="0.85"/>
    <rect x="-2" y="-2" width="68" height="68" rx="10" fill="none" stroke="url(#borderCommon)" stroke-width="3.5"/>
    <rect x="0" y="0" width="64" height="64" rx="8" fill="url(#ivoryFace)"/>
    <rect x="0" y="0" width="64" height="18" rx="8" fill="url(#bevelV)" clip-path="url(#tileClip)" opacity="0.65"/>
    <rect x="0" y="0" width="18" height="64" rx="8" fill="url(#bevelH)" clip-path="url(#tileClip)" opacity="0.5"/>
    <rect x="0" y="46" width="64" height="18" rx="8" fill="url(#shadowV)" clip-path="url(#tileClip)" opacity="0.75"/>
    <rect x="46" y="0" width="18" height="64" rx="8" fill="url(#shadowH)" clip-path="url(#tileClip)" opacity="0.65"/>
    <rect x="5" y="5" width="54" height="54" rx="5" fill="none" stroke="#A07830" stroke-width="1" opacity="0.4"/>
    <text x="32" y="50" font-family="Georgia,'Times New Roman',serif" font-size="42" font-weight="bold"
          text-anchor="middle" fill="#1C0E00" filter="url(#letterDepth)">N</text>
    <rect x="44" y="46" width="16" height="14" rx="3" fill="url(#scoreBg)" opacity="0.9"/>
    <text x="52" y="57" font-family="Georgia,serif" font-size="10" font-weight="bold" text-anchor="middle" fill="#C8922A">1</text>
    <circle cx="10" cy="10" r="5" fill="#666677" opacity="0.85"/>
    <circle cx="10" cy="10" r="3" fill="#AAAACC" opacity="0.7"/>
  </g>

  <g transform="translate(1006,233)">
    <rect x="4" y="5" width="64" height="64" rx="8" fill="url(#tileBase)" opacity="0.85"/>
    <rect x="-2" y="-2" width="68" height="68" rx="10" fill="none" stroke="url(#borderCommon)" stroke-width="3.5"/>
    <rect x="0" y="0" width="64" height="64" rx="8" fill="url(#ivoryFace)"/>
    <rect x="0" y="0" width="64" height="18" rx="8" fill="url(#bevelV)" clip-path="url(#tileClip)" opacity="0.65"/>
    <rect x="0" y="0" width="18" height="64" rx="8" fill="url(#bevelH)" clip-path="url(#tileClip)" opacity="0.5"/>
    <rect x="0" y="46" width="64" height="18" rx="8" fill="url(#shadowV)" clip-path="url(#tileClip)" opacity="0.75"/>
    <rect x="46" y="0" width="18" height="64" rx="8" fill="url(#shadowH)" clip-path="url(#tileClip)" opacity="0.65"/>
    <rect x="5" y="5" width="54" height="54" rx="5" fill="none" stroke="#A07830" stroke-width="1" opacity="0.4"/>
    <text x="32" y="50" font-family="Georgia,'Times New Roman',serif" font-size="42" font-weight="bold"
          text-anchor="middle" fill="#1C0E00" filter="url(#letterDepth)">S</text>
    <rect x="44" y="46" width="16" height="14" rx="3" fill="url(#scoreBg)" opacity="0.9"/>
    <text x="52" y="57" font-family="Georgia,serif" font-size="10" font-weight="bold" text-anchor="middle" fill="#C8922A">1</text>
    <circle cx="10" cy="10" r="5" fill="#666677" opacity="0.85"/>
    <circle cx="10" cy="10" r="3" fill="#AAAACC" opacity="0.7"/>
  </g>

  <!-- Bottom label -->
  <line x1="80" y1="325" x2="1020" y2="325" stroke="#2A1A08" stroke-width="1" opacity="0.4"/>
  <text x="550" y="345" font-family="'Courier New',monospace" font-size="10"
        text-anchor="middle" fill="#4A3A18" letter-spacing="4" opacity="0.55">
    TILE 64×64px  ·  CELL 70×70px  ·  3px MARGIN  ·  COMMON TIER COMPLETE  (8/30)
  </text>

</svg>
