<svg xmlns="http://www.w3.org/2000/svg" viewBox="0 0 1200 800" width="1200" height="800">
<!--
  ============================================================
  LEXICON — WORD BOMB SERIES
  Asset: OBLITERATE (Tier VI)
  Colour: White-hot / Electric Blue (#00AAFF, #FFFFFF, #0044CC)
  Effect: Destroys every tile in a full row OR column simultaneously.
  Most powerful bomb in the game. 8+ letters required.
  Shown here: Row 7 annihilated (all 10 cells detonated at once)

  DESIGN NOTES — COMPLETE TIER LADDER:
  — Tier I   SPARK:      Gold    (#FFD700)  horizontal row scan
  — Tier II  BLAST:      Red     (#FF4400)  single cell precision strike
  — Tier III SURGE:      Teal    (#00FFEE)  full column reveal
  — Tier IV  STORM:      Purple  (#9B40E0)  2×2 area detonation
  — Tier V   TEMPEST:    Magenta (#E040FB)  letter steal vortex
  — Tier VI  OBLITERATE: White/Blue (#00AAFF) full row/col annihilation ← THIS FILE

  VISUAL ESCALATION:
  Obliterate is the apex — every previous effect is visible here
  in some form. The entire row is replaced by a single continuous
  explosion bar. Individual cell detonations merge into one
  sustained beam of energy. Shockwaves extend vertically off
  the board. The row labels glow white-hot.

  STANDALONE ASSET DIMENSIONS:
  Row version:  680px wide × 56px tall (full row width, 1 cell tall)
  Col version:  68px wide × 560px tall (1 cell wide, full col height)
  Reposition to target row/col. Scales with grid cell dimensions.
  ============================================================
-->
  <defs>
    <linearGradient id="pageBg" x1="0%" y1="0%" x2="100%" y2="100%">
      <stop offset="0%" style="stop-color:#060C14"/>
      <stop offset="100%" style="stop-color:#030608"/>
    </linearGradient>
    <linearGradient id="boardSurf" x1="0%" y1="0%" x2="100%" y2="100%">
      <stop offset="0%" style="stop-color:#141E2C"/>
      <stop offset="100%" style="stop-color:#0A1018"/>
    </linearGradient>
    <linearGradient id="ironGrad" x1="0%" y1="0%" x2="100%" y2="100%">
      <stop offset="0%" style="stop-color:#4A4A5A"/>
      <stop offset="100%" style="stop-color:#1A1A25"/>
    </linearGradient>
    <linearGradient id="cardBg" x1="0%" y1="0%" x2="0%" y2="100%">
      <stop offset="0%" style="stop-color:#020C1A"/>
      <stop offset="100%" style="stop-color:#010408"/>
    </linearGradient>
    <linearGradient id="ivoryFace" x1="10%" y1="8%" x2="88%" y2="92%">
      <stop offset="0%"   style="stop-color:#F7EDD0"/>
      <stop offset="40%"  style="stop-color:#EDD9A3"/>
      <stop offset="100%" style="stop-color:#B8963A"/>
    </linearGradient>
    <linearGradient id="tileBase" x1="0%" y1="0%" x2="100%" y2="100%">
      <stop offset="0%" style="stop-color:#4A3000"/>
      <stop offset="100%" style="stop-color:#1A1000"/>
    </linearGradient>

    <!-- The obliterate beam — full row width, white core -->
    <linearGradient id="beamCore" x1="0%" y1="0%" x2="0%" y2="100%">
      <stop offset="0%"   style="stop-color:#00AAFF;stop-opacity:0"/>
      <stop offset="20%"  style="stop-color:#00CCFF;stop-opacity:0.8"/>
      <stop offset="45%"  style="stop-color:#FFFFFF;stop-opacity:1"/>
      <stop offset="50%"  style="stop-color:#FFFFFF;stop-opacity:1"/>
      <stop offset="55%"  style="stop-color:#FFFFFF;stop-opacity:1"/>
      <stop offset="80%"  style="stop-color:#00CCFF;stop-opacity:0.8"/>
      <stop offset="100%" style="stop-color:#00AAFF;stop-opacity:0"/>
    </linearGradient>

    <!-- Beam outer glow -->
    <linearGradient id="beamGlow" x1="0%" y1="0%" x2="0%" y2="100%">
      <stop offset="0%"   style="stop-color:#0044CC;stop-opacity:0"/>
      <stop offset="30%"  style="stop-color:#0088FF;stop-opacity:0.5"/>
      <stop offset="50%"  style="stop-color:#00CCFF;stop-opacity:0.7"/>
      <stop offset="70%"  style="stop-color:#0088FF;stop-opacity:0.5"/>
      <stop offset="100%" style="stop-color:#0044CC;stop-opacity:0"/>
    </linearGradient>

    <!-- Per-cell explosion -->
    <radialGradient id="cellBlast" cx="50%" cy="50%" r="50%">
      <stop offset="0%"   style="stop-color:#FFFFFF;stop-opacity:0.9"/>
      <stop offset="30%"  style="stop-color:#00CCFF;stop-opacity:0.5"/>
      <stop offset="70%"  style="stop-color:#0066CC;stop-opacity:0.2"/>
      <stop offset="100%" style="stop-color:#003388;stop-opacity:0"/>
    </radialGradient>

    <!-- Shockwave ring -->
    <radialGradient id="shockwave" cx="50%" cy="50%" r="50%">
      <stop offset="72%"  style="stop-color:#0044CC;stop-opacity:0"/>
      <stop offset="86%"  style="stop-color:#00AAFF;stop-opacity:0.6"/>
      <stop offset="95%"  style="stop-color:#80DDFF;stop-opacity:0.9"/>
      <stop offset="100%" style="stop-color:#FFFFFF;stop-opacity:0.4"/>
    </radialGradient>

    <!-- Shard fill -->
    <linearGradient id="shardBlue" x1="0%" y1="0%" x2="100%" y2="100%">
      <stop offset="0%"   style="stop-color:#FFFFFF"/>
      <stop offset="100%" style="stop-color:#0088FF"/>
    </linearGradient>

    <!-- FILTERS -->
    <filter id="obliterateFx" x="-20%" y="-300%" width="140%" height="700%">
      <feGaussianBlur in="SourceAlpha" stdDeviation="18" result="b1"/>
      <feFlood flood-color="#00CCFF" flood-opacity="1"   result="c1"/>
      <feComposite in="c1" in2="b1" operator="in" result="g1"/>
      <feGaussianBlur in="SourceAlpha" stdDeviation="40" result="b2"/>
      <feFlood flood-color="#0066FF" flood-opacity="0.6" result="c2"/>
      <feComposite in="c2" in2="b2" operator="in" result="g2"/>
      <feGaussianBlur in="SourceAlpha" stdDeviation="80" result="b3"/>
      <feFlood flood-color="#003399" flood-opacity="0.4" result="c3"/>
      <feComposite in="c3" in2="b3" operator="in" result="g3"/>
      <feMerge>
        <feMergeNode in="g3"/>
        <feMergeNode in="g2"/>
        <feMergeNode in="g1"/>
        <feMergeNode in="SourceGraphic"/>
      </feMerge>
    </filter>

    <filter id="blueGlow" x="-30%" y="-30%" width="160%" height="160%">
      <feGaussianBlur in="SourceAlpha" stdDeviation="5" result="blur"/>
      <feFlood flood-color="#00AAFF" flood-opacity="0.85" result="color"/>
      <feComposite in="color" in2="blur" operator="in" result="glow"/>
      <feMerge>
        <feMergeNode in="glow"/>
        <feMergeNode in="SourceGraphic"/>
      </feMerge>
    </filter>

    <filter id="whiteHot" x="-30%" y="-30%" width="160%" height="160%">
      <feGaussianBlur in="SourceAlpha" stdDeviation="6" result="blur"/>
      <feFlood flood-color="#FFFFFF" flood-opacity="0.95" result="color"/>
      <feComposite in="color" in2="blur" operator="in" result="glow"/>
      <feMerge>
        <feMergeNode in="glow"/>
        <feMergeNode in="SourceGraphic"/>
      </feMerge>
    </filter>

    <filter id="goldGlow">
      <feGaussianBlur in="SourceAlpha" stdDeviation="3" result="blur"/>
      <feFlood flood-color="#FFD700" flood-opacity="0.6" result="color"/>
      <feComposite in="color" in2="blur" operator="in" result="glow"/>
      <feMerge>
        <feMergeNode in="glow"/>
        <feMergeNode in="SourceGraphic"/>
      </feMerge>
    </filter>

    <filter id="boardShadow">
      <feDropShadow dx="0" dy="0" stdDeviation="20" flood-color="#000000" flood-opacity="0.9"/>
    </filter>

    <filter id="tileShadow">
      <feDropShadow dx="3" dy="5" stdDeviation="6" flood-color="#000000" flood-opacity="0.6"/>
    </filter>

    <filter id="smokeBlur">
      <feGaussianBlur stdDeviation="14"/>
    </filter>

    <filter id="farSmokeBlur">
      <feGaussianBlur stdDeviation="22"/>
    </filter>

    <pattern id="grain" x="0" y="0" width="1200" height="22" patternUnits="userSpaceOnUse">
      <line x1="0" y1="11" x2="1200" y2="11" stroke="#FFFFFF" stroke-width="0.4" opacity="0.02"/>
    </pattern>

  </defs>

  <!-- PAGE -->
  <rect width="1200" height="800" fill="url(#pageBg)"/>
  <rect width="1200" height="800" fill="url(#grain)"/>

  <!-- Blue atmospheric tint — the room lights up -->
  <radialGradient id="roomLight" cx="45%" cy="55%" r="50%">
    <stop offset="0%"   style="stop-color:#001833;stop-opacity:0.8"/>
    <stop offset="100%" style="stop-color:#000000;stop-opacity:0"/>
  </radialGradient>
  <rect width="1200" height="800" fill="url(#roomLight)"/>

  <text x="600" y="38" font-family="Georgia, serif" font-size="12"
        text-anchor="middle" fill="#003A6A" letter-spacing="6" opacity="0.9">LEXICON  —  WORD BOMB  —  TIER VI</text>
  <line x1="180" y1="48" x2="1020" y2="48" stroke="#001A3A" stroke-width="1" opacity="0.7"/>

  <!-- ══ BOARD ══ -->
  <rect x="80" y="65" width="760" height="680" rx="8"
        fill="url(#boardSurf)" filter="url(#boardShadow)"/>
  <rect x="80" y="65" width="760" height="680" rx="8" fill="url(#grain)" opacity="0.5"/>
  <rect x="80" y="65" width="760" height="680" rx="8"
        fill="none" stroke="#1A2A3A" stroke-width="2"/>

  <!-- Runes — blue-tinted by the blast light -->
  <g fill="#1A3A5A" font-family="serif" font-size="11" opacity="0.5">
    <text x="98"  y="88">ᚠ</text><text x="114" y="88">ᚢ</text><text x="130" y="88">ᚦ</text>
    <text x="146" y="88">ᚨ</text><text x="162" y="88">ᚱ</text><text x="190" y="88">ᚷ</text>
    <text x="640" y="88">ᛁ</text><text x="656" y="88">ᛃ</text><text x="688" y="88">ᛈ</text>
    <text x="710" y="88">ᛊ</text><text x="736" y="88">ᛏ</text><text x="768" y="88">ᛖ</text>
    <text x="800" y="88">ᛚ</text><text x="820" y="88">ᛞ</text>
  </g>

  <!-- ══ GRID
       68×56px cells, origin x=155 y=120
       Col centres A-J: 189,257,325,393,461,529,597,665,733,801
       Row centres 1-10: 148,204,260,316,372,428,484,540,596,652
       TARGET ROW 7: y=456 to y=512, centre y=484
       All 10 cells across row 7 annihilated simultaneously
  ══ -->
  <rect x="155" y="120" width="680" height="560" fill="#070E18" opacity="0.95"/>

  <!-- Rows above/below the beam are slightly lit by the flash -->
  <rect x="155" y="400" width="680" height="56" fill="#001833" opacity="0.3"/>
  <rect x="155" y="512" width="680" height="56" fill="#001833" opacity="0.25"/>
  <rect x="155" y="344" width="680" height="56" fill="#001833" opacity="0.15"/>
  <rect x="155" y="568" width="680" height="56" fill="#001833" opacity="0.12"/>

  <!-- ══ ROW 7 OBLITERATION (y=456 to y=512) ══ -->

  <!-- Far smoke pillars rising from each cell — behind everything -->
  <g opacity="0.35" filter="url(#farSmokeBlur)">
    <ellipse cx="189" cy="380" rx="28" ry="80" fill="#001A44"/>
    <ellipse cx="257" cy="370" rx="24" ry="90" fill="#001A44"/>
    <ellipse cx="325" cy="375" rx="26" ry="85" fill="#001A44"/>
    <ellipse cx="393" cy="365" rx="30" ry="95" fill="#001A44"/>
    <ellipse cx="461" cy="358" rx="28" ry="100" fill="#001A44"/>
    <ellipse cx="529" cy="362" rx="26" ry="92" fill="#001A44"/>
    <ellipse cx="597" cy="370" rx="28" ry="88" fill="#001A44"/>
    <ellipse cx="665" cy="375" rx="24" ry="82" fill="#001A44"/>
    <ellipse cx="733" cy="368" rx="26" ry="90" fill="#001A44"/>
    <ellipse cx="801" cy="372" rx="28" ry="86" fill="#001A44"/>
    <!-- Downward smoke -->
    <ellipse cx="189" cy="590" rx="26" ry="60" fill="#001A44"/>
    <ellipse cx="325" cy="580" rx="22" ry="70" fill="#001A44"/>
    <ellipse cx="461" cy="588" rx="28" ry="65" fill="#001A44"/>
    <ellipse cx="597" cy="576" rx="24" ry="72" fill="#001A44"/>
    <ellipse cx="733" cy="582" rx="26" ry="66" fill="#001A44"/>
  </g>

  <!-- ══ THE BEAM — continuous horizontal energy bar across full row ══ -->
  <!-- Outer diffuse glow (very wide vertically) -->
  <rect x="155" y="430" width="680" height="108"
        fill="#0066FF" opacity="0.12" filter="url(#obliterateFx)"/>

  <!-- Mid glow -->
  <rect x="155" y="448" width="680" height="72"
        fill="url(#beamGlow)" opacity="0.7" filter="url(#blueGlow)"/>

  <!-- Core beam — the white-hot line -->
  <rect x="155" y="456" width="680" height="56"
        fill="url(#beamCore)" filter="url(#obliterateFx)"/>

  <!-- Brightest white core strip at dead centre -->
  <rect x="155" y="478" width="680" height="12"
        fill="#FFFFFF" opacity="0.95" filter="url(#whiteHot)"/>

  <!-- Edge brightness spikes at each cell boundary (vertical line through beam) -->
  <g stroke="#FFFFFF" stroke-width="1.5" opacity="0.4" filter="url(#whiteHot)">
    <line x1="223" y1="450" x2="223" y2="518"/>
    <line x1="291" y1="450" x2="291" y2="518"/>
    <line x1="359" y1="450" x2="359" y2="518"/>
    <line x1="427" y1="450" x2="427" y2="518"/>
    <line x1="495" y1="450" x2="495" y2="518"/>
    <line x1="563" y1="450" x2="563" y2="518"/>
    <line x1="631" y1="450" x2="631" y2="518"/>
    <line x1="699" y1="450" x2="699" y2="518"/>
    <line x1="767" y1="450" x2="767" y2="518"/>
  </g>

  <!-- ══ SHOCKWAVE RINGS — one per cell, all expanding simultaneously ══ -->
  <g opacity="0.45" filter="url(#blueGlow)">
    <circle cx="189" cy="484" r="52" fill="url(#shockwave)"/>
    <circle cx="257" cy="484" r="48" fill="url(#shockwave)"/>
    <circle cx="325" cy="484" r="55" fill="url(#shockwave)"/>
    <circle cx="393" cy="484" r="50" fill="url(#shockwave)"/>
    <circle cx="461" cy="484" r="54" fill="url(#shockwave)"/>
    <circle cx="529" cy="484" r="52" fill="url(#shockwave)"/>
    <circle cx="597" cy="484" r="49" fill="url(#shockwave)"/>
    <circle cx="665" cy="484" r="53" fill="url(#shockwave)"/>
    <circle cx="733" cy="484" r="50" fill="url(#shockwave)"/>
    <circle cx="801" cy="484" r="52" fill="url(#shockwave)"/>
  </g>
  <!-- Outer rings -->
  <g fill="none" stroke="#0066CC" stroke-width="1" opacity="0.2">
    <circle cx="189" cy="484" r="80"/><circle cx="325" cy="484" r="78"/>
    <circle cx="461" cy="484" r="82"/><circle cx="597" cy="484" r="80"/>
    <circle cx="733" cy="484" r="78"/><circle cx="801" cy="484" r="80"/>
  </g>

  <!-- ══ DEBRIS SHARDS — upward and downward from beam ══ -->
  <!-- Upward shards (each cell sends debris up) -->
  <g fill="url(#shardBlue)" filter="url(#blueGlow)">
    <!-- A7 -->
    <polygon points="189,456 184,432 192,426 196,450" opacity="0.8"/>
    <polygon points="200,448 196,420 204,416 208,444" opacity="0.6"/>
    <polygon points="178,444 172,418 180,414 184,440" opacity="0.6"/>
    <!-- C7 -->
    <polygon points="325,456 320,428 328,422 332,450" opacity="0.8"/>
    <polygon points="336,444 332,416 340,412 344,440" opacity="0.6"/>
    <!-- E7 -->
    <polygon points="461,456 456,424 464,418 468,450" opacity="0.85"/>
    <polygon points="472,444 468,416 476,410 480,442" opacity="0.65"/>
    <polygon points="450,444 444,418 452,412 456,440" opacity="0.65"/>
    <!-- G7 -->
    <polygon points="597,456 592,428 600,422 604,450" opacity="0.8"/>
    <polygon points="608,444 604,416 612,410 616,440" opacity="0.6"/>
    <!-- I7 -->
    <polygon points="733,456 728,426 736,420 740,450" opacity="0.8"/>
    <polygon points="744,444 740,416 748,412 752,440" opacity="0.6"/>
  </g>
  <!-- Downward shards -->
  <g fill="url(#shardBlue)" filter="url(#blueGlow)">
    <polygon points="257,512 252,540 260,546 264,518" opacity="0.75"/>
    <polygon points="268,518 264,548 272,552 276,524" opacity="0.55"/>
    <polygon points="393,512 388,542 396,548 400,518" opacity="0.8"/>
    <polygon points="529,512 524,544 532,550 536,518" opacity="0.75"/>
    <polygon points="540,518 536,546 544,550 548,524" opacity="0.55"/>
    <polygon points="665,512 660,540 668,546 672,518" opacity="0.75"/>
    <polygon points="801,512 796,542 804,548 808,518" opacity="0.75"/>
  </g>

  <!-- Far particle scatter (tiny glowing specks) -->
  <g fill="#80DDFF" opacity="0.55" filter="url(#blueGlow)">
    <circle cx="189" cy="414" r="2"/><circle cx="210" cy="404" r="1.5"/>
    <circle cx="168" cy="408" r="2"/><circle cx="325" cy="402" r="2.5"/>
    <circle cx="461" cy="396" r="2"/><circle cx="480" cy="406" r="1.5"/>
    <circle cx="440" cy="402" r="2"/><circle cx="597" cy="410" r="2.5"/>
    <circle cx="733" cy="404" r="2"/><circle cx="750" cy="396" r="1.5"/>
    <circle cx="801" cy="408" r="2"/><circle cx="820" cy="398" r="1.5"/>
    <!-- Below beam -->
    <circle cx="257" cy="556" r="2"/><circle cx="393" cy="562" r="2.5"/>
    <circle cx="529" cy="558" r="2"/><circle cx="665" cy="554" r="2"/>
    <circle cx="801" cy="560" r="2.5"/><circle cx="175" cy="548" r="1.5"/>
  </g>

  <!-- ══ DESTROYED TILES in beam (all 10 cells, fading/cracked) ══ -->
  <!-- Showing tiles that existed at row 7 — they appear white-washed/dissolving -->
  <!-- A7 — tile L -->
  <g transform="translate(163,460)" opacity="0.25">
    <rect x="0" y="0" width="50" height="44" rx="6" fill="url(#ivoryFace)"/>
    <rect x="0" y="0" width="50" height="44" rx="6" fill="#FFFFFF" opacity="0.5"/>
    <text x="25" y="32" font-family="Georgia, serif" font-size="26" font-weight="bold"
          text-anchor="middle" fill="#000000" opacity="0.4">L</text>
  </g>
  <!-- C7 — tile E (uncommon, 2-cell) -->
  <g transform="translate(299,460)" opacity="0.2">
    <rect x="0" y="0" width="50" height="44" rx="6" fill="url(#ivoryFace)"/>
    <rect x="0" y="0" width="50" height="44" rx="6" fill="#FFFFFF" opacity="0.5"/>
    <text x="25" y="32" font-family="Georgia, serif" font-size="26" font-weight="bold"
          text-anchor="middle" fill="#000000" opacity="0.4">E</text>
  </g>
  <!-- F7 — tile X (rare) -->
  <g transform="translate(503,460)" opacity="0.22">
    <rect x="0" y="0" width="50" height="44" rx="6" fill="url(#ivoryFace)"/>
    <rect x="0" y="0" width="50" height="44" rx="6" fill="#FFFFFF" opacity="0.5"/>
    <text x="25" y="32" font-family="Georgia, serif" font-size="26" font-weight="bold"
          text-anchor="middle" fill="#000000" opacity="0.4">X</text>
  </g>
  <!-- H7 — tile N -->
  <g transform="translate(639,460)" opacity="0.2">
    <rect x="0" y="0" width="50" height="44" rx="6" fill="url(#ivoryFace)"/>
    <rect x="0" y="0" width="50" height="44" rx="6" fill="#FFFFFF" opacity="0.5"/>
    <text x="25" y="32" font-family="Georgia, serif" font-size="26" font-weight="bold"
          text-anchor="middle" fill="#000000" opacity="0.4">N</text>
  </g>

  <!-- Grid lines — glow pass -->
  <g stroke="#C8922A" stroke-width="2" opacity="0.18">
    <line x1="155" y1="120" x2="155" y2="680"/><line x1="223" y1="120" x2="223" y2="680"/>
    <line x1="291" y1="120" x2="291" y2="680"/><line x1="359" y1="120" x2="359" y2="680"/>
    <line x1="427" y1="120" x2="427" y2="680"/><line x1="495" y1="120" x2="495" y2="680"/>
    <line x1="563" y1="120" x2="563" y2="680"/><line x1="631" y1="120" x2="631" y2="680"/>
    <line x1="699" y1="120" x2="699" y2="680"/><line x1="767" y1="120" x2="767" y2="680"/>
    <line x1="835" y1="120" x2="835" y2="680"/>
    <line x1="155" y1="120" x2="835" y2="120"/><line x1="155" y1="176" x2="835" y2="176"/>
    <line x1="155" y1="232" x2="835" y2="232"/><line x1="155" y1="288" x2="835" y2="288"/>
    <line x1="155" y1="344" x2="835" y2="344"/><line x1="155" y1="400" x2="835" y2="400"/>
    <line x1="155" y1="456" x2="835" y2="456"/><line x1="155" y1="512" x2="835" y2="512"/>
    <line x1="155" y1="568" x2="835" y2="568"/><line x1="155" y1="624" x2="835" y2="624"/>
    <line x1="155" y1="680" x2="835" y2="680"/>
  </g>
  <!-- Grid lines — sharp pass -->
  <g stroke="#D4A030" stroke-width="0.8" opacity="0.8">
    <line x1="155" y1="120" x2="155" y2="680"/><line x1="223" y1="120" x2="223" y2="680"/>
    <line x1="291" y1="120" x2="291" y2="680"/><line x1="359" y1="120" x2="359" y2="680"/>
    <line x1="427" y1="120" x2="427" y2="680"/><line x1="495" y1="120" x2="495" y2="680"/>
    <line x1="563" y1="120" x2="563" y2="680"/><line x1="631" y1="120" x2="631" y2="680"/>
    <line x1="699" y1="120" x2="699" y2="680"/><line x1="767" y1="120" x2="767" y2="680"/>
    <line x1="835" y1="120" x2="835" y2="680"/>
    <line x1="155" y1="120" x2="835" y2="120"/><line x1="155" y1="176" x2="835" y2="176"/>
    <line x1="155" y1="232" x2="835" y2="232"/><line x1="155" y1="288" x2="835" y2="288"/>
    <line x1="155" y1="344" x2="835" y2="344"/><line x1="155" y1="400" x2="835" y2="400"/>
    <line x1="155" y1="456" x2="835" y2="456"/><line x1="155" y1="512" x2="835" y2="512"/>
    <line x1="155" y1="568" x2="835" y2="568"/><line x1="155" y1="624" x2="835" y2="624"/>
    <line x1="155" y1="680" x2="835" y2="680"/>
  </g>

  <!-- Row 7 border lines — white hot, overwhelm the gold -->
  <g stroke="#FFFFFF" stroke-width="2.5" opacity="0.8" filter="url(#whiteHot)">
    <line x1="155" y1="456" x2="835" y2="456"/>
    <line x1="155" y1="512" x2="835" y2="512"/>
  </g>

  <!-- Column labels — all tinted blue by flash -->
  <g font-family="Georgia, serif" font-size="15" font-weight="bold"
     text-anchor="middle" fill="#F5C842" filter="url(#goldGlow)">
    <text x="189" y="112">A</text><text x="257" y="112">B</text><text x="325" y="112">C</text>
    <text x="393" y="112">D</text><text x="461" y="112">E</text><text x="529" y="112">F</text>
    <text x="597" y="112">G</text><text x="665" y="112">H</text>
    <text x="733" y="112">I</text><text x="801" y="112">J</text>
    <text x="189" y="700">A</text><text x="257" y="700">B</text><text x="325" y="700">C</text>
    <text x="393" y="700">D</text><text x="461" y="700">E</text><text x="529" y="700">F</text>
    <text x="597" y="700">G</text><text x="665" y="700">H</text>
    <text x="733" y="700">I</text><text x="801" y="700">J</text>
  </g>

  <!-- Row labels — row 7 WHITE HOT, others gold -->
  <g font-family="Georgia, serif" font-size="14" font-weight="bold"
     text-anchor="middle" dominant-baseline="middle" fill="#F5C842" filter="url(#goldGlow)">
    <text x="140" y="148">1</text><text x="140" y="204">2</text><text x="140" y="260">3</text>
    <text x="140" y="316">4</text><text x="140" y="372">5</text><text x="140" y="428">6</text>
    <text x="140" y="484" fill="#FFFFFF" filter="url(#whiteHot)" font-size="16">7</text>
    <text x="140" y="540">8</text><text x="140" y="596">9</text><text x="137" y="652">10</text>
    <text x="850" y="148">1</text><text x="850" y="204">2</text><text x="850" y="260">3</text>
    <text x="850" y="316">4</text><text x="850" y="372">5</text><text x="850" y="428">6</text>
    <text x="850" y="484" fill="#FFFFFF" filter="url(#whiteHot)" font-size="16">7</text>
    <text x="850" y="540">8</text><text x="850" y="596">9</text><text x="853" y="652">10</text>
  </g>

  <!-- Corner brackets -->
  <g fill="url(#ironGrad)">
    <rect x="80" y="65" width="44" height="9" rx="2"/><rect x="80" y="65" width="9" height="44" rx="2"/>
    <rect x="796" y="65" width="44" height="9" rx="2"/><rect x="831" y="65" width="9" height="44" rx="2"/>
    <rect x="80" y="736" width="44" height="9" rx="2"/><rect x="80" y="700" width="9" height="44" rx="2"/>
    <rect x="796" y="736" width="44" height="9" rx="2"/><rect x="831" y="700" width="9" height="44" rx="2"/>
  </g>
  <g fill="#222230">
    <circle cx="102" cy="84" r="3.5"/><circle cx="94" cy="92" r="2.5"/>
    <circle cx="818" cy="84" r="3.5"/><circle cx="826" cy="92" r="2.5"/>
    <circle cx="102" cy="726" r="3.5"/><circle cx="94" cy="718" r="2.5"/>
    <circle cx="818" cy="726" r="3.5"/><circle cx="826" cy="718" r="2.5"/>
  </g>

  <!-- Watermark -->
  <text x="495" y="484" font-family="Georgia, serif" font-size="64"
        font-weight="bold" text-anchor="middle" dominant-baseline="middle"
        fill="#FFFFFF" opacity="0.04" letter-spacing="2">OBLITERATE</text>

  <!-- ══ RIGHT PANEL ══ -->
  <rect x="880" y="65" width="290" height="680" rx="8"
        fill="#080C14" opacity="0.97" filter="url(#boardShadow)"/>
  <rect x="880" y="65" width="290" height="680" rx="8"
        fill="none" stroke="#001A3A" stroke-width="1.5"/>

  <!-- Bomb card -->
  <rect x="900" y="85" width="250" height="170" rx="10" fill="url(#cardBg)"/>
  <rect x="900" y="85" width="250" height="170" rx="10"
        fill="none" stroke="#0066FF" stroke-width="1.5" filter="url(#blueGlow)" opacity="0.7"/>

  <!-- Tier badge -->
  <rect x="900" y="85" width="64" height="170" rx="10" fill="#010810" opacity="0.9"/>
  <rect x="936" y="85" width="28" height="170" fill="#010810" opacity="0.9"/>
  <text x="932" y="158" font-family="Georgia, serif" font-size="10"
        text-anchor="middle" fill="#003A6A" letter-spacing="2">TIER</text>
  <text x="932" y="192" font-family="Georgia, serif" font-size="28"
        font-weight="bold" text-anchor="middle" fill="#00AAFF"
        filter="url(#blueGlow)">VI</text>
  <line x1="966" y1="93" x2="966" y2="247" stroke="#0066FF" stroke-width="1" opacity="0.25"/>

  <text x="1093" y="124" font-family="Georgia, serif" font-size="19"
        font-weight="bold" text-anchor="middle" fill="#00CCFF"
        filter="url(#blueGlow)" letter-spacing="3">OBLITERATE</text>
  <text x="1093" y="152" font-family="'Courier New', monospace" font-size="11"
        text-anchor="middle" fill="#FFFFFF" letter-spacing="5" opacity="0.7">ABSOLUTE  ZERO</text>

  <line x1="970" y1="163" x2="1140" y2="163" stroke="#0066FF" stroke-width="0.8" opacity="0.3"/>

  <text x="1055" y="183" font-family="Georgia, serif" font-size="13"
        text-anchor="middle" fill="#0099CC" opacity="0.9">Target Row</text>
  <text x="1055" y="212" font-family="Georgia, serif" font-size="28"
        font-weight="bold" text-anchor="middle" fill="#FFFFFF"
        filter="url(#whiteHot)" letter-spacing="6">ROW  7</text>
  <text x="1055" y="234" font-family="Calibri, sans-serif" font-size="11"
        text-anchor="middle" fill="#005580" opacity="0.85">8+ letters spent  •  full row destroyed</text>
  <text x="1055" y="250" font-family="Calibri, sans-serif" font-size="10"
        text-anchor="middle" fill="#003344" opacity="0.7">word played: ABSOLUTE (8)</text>

  <!-- Results panel -->
  <line x1="900" y1="268" x2="1150" y2="268" stroke="#001A3A" stroke-width="1" opacity="0.7"/>
  <text x="1025" y="286" font-family="Georgia, serif" font-size="11"
        text-anchor="middle" fill="#003A6A" letter-spacing="3" opacity="0.9">ROW 7  ANNIHILATED</text>

  <!-- 10 cell results -->
  <g font-family="'Courier New', monospace" font-size="11" dominant-baseline="middle">
    <text x="910" y="308" fill="#00AAFF" opacity="0.9">A7</text>
    <rect x="934" y="299" width="16" height="16" rx="3" fill="url(#ivoryFace)" opacity="0.4"/>
    <text x="942" y="308" font-family="Georgia, serif" font-size="10" text-anchor="middle"
          fill="#111" opacity="0.5">L</text>
    <text x="958" y="308" fill="#00AAFF" opacity="0.9">  L  ×1   destroyed</text>

    <text x="910" y="326" fill="#334466" opacity="0.6">B7</text>
    <circle cx="942" cy="326" r="3" fill="#223355" opacity="0.5"/>
    <text x="958" y="326" fill="#334466" opacity="0.5">  empty  confirmed</text>

    <text x="910" y="344" fill="#00AAFF" opacity="0.9">C7</text>
    <rect x="934" y="335" width="16" height="16" rx="3" fill="url(#ivoryFace)" opacity="0.4"
          stroke="#00D4FF" stroke-width="1"/>
    <text x="942" y="344" font-family="Georgia, serif" font-size="10" text-anchor="middle"
          fill="#111" opacity="0.5">E</text>
    <text x="958" y="344" fill="#00D4FF" opacity="0.9">  E  ×1   uncommon</text>

    <text x="910" y="362" fill="#334466" opacity="0.6">D7</text>
    <circle cx="942" cy="362" r="3" fill="#223355" opacity="0.5"/>
    <text x="958" y="362" fill="#334466" opacity="0.5">  empty  confirmed</text>

    <text x="910" y="380" fill="#334466" opacity="0.6">E7</text>
    <circle cx="942" cy="380" r="3" fill="#223355" opacity="0.5"/>
    <text x="958" y="380" fill="#334466" opacity="0.5">  empty  confirmed</text>

    <text x="910" y="398" fill="#00AAFF" opacity="0.9">F7</text>
    <rect x="934" y="389" width="16" height="16" rx="3" fill="url(#ivoryFace)" opacity="0.4"
          stroke="#F5A623" stroke-width="1.2"/>
    <text x="942" y="398" font-family="Georgia, serif" font-size="10" text-anchor="middle"
          fill="#111" opacity="0.5">X</text>
    <text x="958" y="398" fill="#FFD700" opacity="0.9">  X  ×2   rare</text>

    <text x="910" y="416" fill="#334466" opacity="0.6">G7</text>
    <circle cx="942" cy="416" r="3" fill="#223355" opacity="0.5"/>
    <text x="958" y="416" fill="#334466" opacity="0.5">  empty  confirmed</text>

    <text x="910" y="434" fill="#00AAFF" opacity="0.9">H7</text>
    <rect x="934" y="425" width="16" height="16" rx="3" fill="url(#ivoryFace)" opacity="0.4"/>
    <text x="942" y="434" font-family="Georgia, serif" font-size="10" text-anchor="middle"
          fill="#111" opacity="0.5">N</text>
    <text x="958" y="434" fill="#00AAFF" opacity="0.9">  N  ×1   destroyed</text>

    <text x="910" y="452" fill="#334466" opacity="0.6">I7</text>
    <circle cx="942" cy="452" r="3" fill="#223355" opacity="0.5"/>
    <text x="958" y="452" fill="#334466" opacity="0.5">  empty  confirmed</text>

    <text x="910" y="470" fill="#334466" opacity="0.6">J7</text>
    <circle cx="942" cy="470" r="3" fill="#223355" opacity="0.5"/>
    <text x="958" y="470" fill="#334466" opacity="0.5">  empty  confirmed</text>
  </g>

  <!-- Tally -->
  <line x1="900" y1="488" x2="1150" y2="488" stroke="#001A3A" stroke-width="1" opacity="0.6"/>
  <text x="910" y="506" font-family="'Courier New', monospace" font-size="11"
        fill="#004466" opacity="0.8">4 tiles destroyed  •  6 cells cleared</text>
  <text x="910" y="522" font-family="'Courier New', monospace" font-size="11"
        fill="#004466" opacity="0.8">Letters: L E X N  added to bank</text>

  <!-- Effect description -->
  <line x1="900" y1="540" x2="1150" y2="540" stroke="#001A3A" stroke-width="1" opacity="0.5"/>
  <text x="1025" y="558" font-family="Georgia, serif" font-size="11"
        text-anchor="middle" fill="#003A6A" letter-spacing="3" opacity="0.9">EFFECT</text>
  <text x="1025" y="578" font-family="Calibri, sans-serif" font-size="12"
        text-anchor="middle" fill="#0099CC" opacity="0.9">Entire row obliterated simultaneously.</text>
  <text x="1025" y="594" font-family="Calibri, sans-serif" font-size="12"
        text-anchor="middle" fill="#0099CC" opacity="0.9">All tiles harvested. All empties confirmed.</text>
  <text x="1025" y="614" font-family="Calibri, sans-serif" font-size="11"
        text-anchor="middle" fill="#005577" opacity="0.8">Can target row OR column.</text>
  <text x="1025" y="630" font-family="Calibri, sans-serif" font-size="11"
        text-anchor="middle" fill="#005577" opacity="0.8">Most powerful single action in the game.</text>

  <!-- Complete tier ladder — final version, all six entries -->
  <line x1="900" y1="650" x2="1150" y2="650" stroke="#001A3A" stroke-width="1" opacity="0.5"/>
  <text x="1025" y="666" font-family="Georgia, serif" font-size="10"
        text-anchor="middle" fill="#002A4A" letter-spacing="2" opacity="0.7">COMPLETE TIER LADDER</text>
  <g font-family="'Courier New', monospace" font-size="10">
    <text x="906" y="682" fill="#AA8800" opacity="0.7">I    SPARK       gold    row scan</text>
    <text x="906" y="696" fill="#882200" opacity="0.7">II   BLAST       red     single cell</text>
    <text x="906" y="710" fill="#007A88" opacity="0.7">III  SURGE       teal    col reveal</text>
    <text x="906" y="724" fill="#5A2A8A" opacity="0.7">IV   STORM       purple  2×2 zone</text>
    <text x="906" y="738" fill="#880088" opacity="0.7">V    TEMPEST     magenta letter steal</text>
    <text x="906" y="752" fill="#0066AA" opacity="0.95">VI   OBLITERATE  blue    row/col wipe</text>
  </g>

</svg>
