<svg xmlns="http://www.w3.org/2000/svg" viewBox="0 0 1200 800" width="1200" height="800">
<!--
  ============================================================
  LEXICON — WORD BOMB SERIES
  Asset: TEMPEST (Tier V)
  Colour: Magenta / Crimson  (#E040FB, #FF0066, #AA00CC)
  Effect: Intercept — steals one random letter from enemy bank
  No grid cell is targeted. Effect fires on the OPPONENT'S bank.
  The stolen letter transfers to YOUR bank immediately.

  DESIGN NOTES:
  — Tier I   SPARK:      Gold    (#FFD700)  horizontal row scan
  — Tier II  BLAST:      Red     (#FF4400)  single cell precision strike
  — Tier III SURGE:      Teal    (#00FFEE)  full column reveal
  — Tier IV  STORM:      Purple  (#9B40E0)  2×2 area detonation
  — Tier V   TEMPEST:    Magenta (#E040FB)  letter steal vortex  ← THIS FILE
  — Tier VI  OBLITERATE: TBD               full row/col annihilation

  VISUAL CONCEPT:
  Tempest is the only Tier that bypasses the board entirely.
  Instead of targeting cells it shows two Letter Banks:
    LEFT  = Enemy bank (losing a letter — spiralling into vortex)
    RIGHT = Your bank  (gaining a letter — pulled in from vortex)
  A swirling vortex portal dominates the centre.
  The stolen letter animates from left bank through vortex to right bank.
  Board shown at reduced opacity in background for context.

  STANDALONE ASSET DIMENSIONS:
  Vortex portal element: ~200×200px, transparent bg
  Recentre between the two bank panels in your UI layout.
  ============================================================
-->
  <defs>
    <linearGradient id="pageBg" x1="0%" y1="0%" x2="100%" y2="100%">
      <stop offset="0%" style="stop-color:#0D1117"/>
      <stop offset="100%" style="stop-color:#080D13"/>
    </linearGradient>
    <linearGradient id="boardSurf" x1="0%" y1="0%" x2="100%" y2="100%">
      <stop offset="0%" style="stop-color:#141E2C"/>
      <stop offset="100%" style="stop-color:#0A1018"/>
    </linearGradient>
    <linearGradient id="ironGrad" x1="0%" y1="0%" x2="100%" y2="100%">
      <stop offset="0%" style="stop-color:#4A4A5A"/>
      <stop offset="100%" style="stop-color:#1A1A25"/>
    </linearGradient>
    <linearGradient id="cardBg" x1="0%" y1="0%" x2="0%" y2="100%">
      <stop offset="0%" style="stop-color:#180A20"/>
      <stop offset="100%" style="stop-color:#0A0410"/>
    </linearGradient>
    <linearGradient id="ivoryFace" x1="10%" y1="8%" x2="88%" y2="92%">
      <stop offset="0%"   style="stop-color:#F7EDD0"/>
      <stop offset="40%"  style="stop-color:#EDD9A3"/>
      <stop offset="100%" style="stop-color:#B8963A"/>
    </linearGradient>
    <linearGradient id="tileBase" x1="0%" y1="0%" x2="100%" y2="100%">
      <stop offset="0%" style="stop-color:#4A3000"/>
      <stop offset="100%" style="stop-color:#1A1000"/>
    </linearGradient>
    <!-- Enemy bank bg — dark red tint (losing) -->
    <linearGradient id="enemyBank" x1="0%" y1="0%" x2="100%" y2="100%">
      <stop offset="0%" style="stop-color:#200810"/>
      <stop offset="100%" style="stop-color:#0A0408"/>
    </linearGradient>
    <!-- Your bank bg — dark green tint (gaining) -->
    <linearGradient id="yourBank" x1="0%" y1="0%" x2="100%" y2="100%">
      <stop offset="0%" style="stop-color:#081A10"/>
      <stop offset="100%" style="stop-color:#040A06"/>
    </linearGradient>

    <!-- Vortex core -->
    <radialGradient id="vortexCore" cx="50%" cy="50%" r="50%">
      <stop offset="0%"   style="stop-color:#FFFFFF"/>
      <stop offset="12%"  style="stop-color:#FFB0FF"/>
      <stop offset="35%"  style="stop-color:#E040FB"/>
      <stop offset="65%"  style="stop-color:#AA00CC;stop-opacity:0.7"/>
      <stop offset="100%" style="stop-color:#440055;stop-opacity:0"/>
    </radialGradient>

    <!-- Vortex ring gradient — swirling bands -->
    <radialGradient id="vortexRing1" cx="50%" cy="50%" r="50%">
      <stop offset="60%"  style="stop-color:#AA00CC;stop-opacity:0"/>
      <stop offset="78%"  style="stop-color:#E040FB;stop-opacity:0.5"/>
      <stop offset="90%"  style="stop-color:#FF80FF;stop-opacity:0.8"/>
      <stop offset="100%" style="stop-color:#FFFFFF;stop-opacity:0.2"/>
    </radialGradient>

    <!-- Stolen tile highlight — magenta wash -->
    <radialGradient id="stolenWash" cx="50%" cy="50%" r="50%">
      <stop offset="0%"   style="stop-color:#E040FB;stop-opacity:0.5"/>
      <stop offset="100%" style="stop-color:#AA00CC;stop-opacity:0"/>
    </radialGradient>

    <!-- Trail gradient — letter in transit -->
    <linearGradient id="transitTrail" x1="0%" y1="0%" x2="100%" y2="0%">
      <stop offset="0%"   style="stop-color:#FF006600"/>
      <stop offset="30%"  style="stop-color:#E040FBAA"/>
      <stop offset="70%"  style="stop-color:#FF80FFCC"/>
      <stop offset="100%" style="stop-color:#FFFFFF88"/>
    </linearGradient>

    <!-- FILTERS -->
    <filter id="vortexFx" x="-80%" y="-80%" width="260%" height="260%">
      <feGaussianBlur in="SourceAlpha" stdDeviation="14" result="b1"/>
      <feFlood flood-color="#E040FB" flood-opacity="1"   result="c1"/>
      <feComposite in="c1" in2="b1" operator="in" result="g1"/>
      <feGaussianBlur in="SourceAlpha" stdDeviation="32" result="b2"/>
      <feFlood flood-color="#AA00CC" flood-opacity="0.6" result="c2"/>
      <feComposite in="c2" in2="b2" operator="in" result="g2"/>
      <feGaussianBlur in="SourceAlpha" stdDeviation="60" result="b3"/>
      <feFlood flood-color="#440055" flood-opacity="0.3" result="c3"/>
      <feComposite in="c3" in2="b3" operator="in" result="g3"/>
      <feMerge>
        <feMergeNode in="g3"/>
        <feMergeNode in="g2"/>
        <feMergeNode in="g1"/>
        <feMergeNode in="SourceGraphic"/>
      </feMerge>
    </filter>

    <filter id="magentaGlow">
      <feGaussianBlur in="SourceAlpha" stdDeviation="5" result="blur"/>
      <feFlood flood-color="#E040FB" flood-opacity="0.85" result="color"/>
      <feComposite in="color" in2="blur" operator="in" result="glow"/>
      <feMerge>
        <feMergeNode in="glow"/>
        <feMergeNode in="SourceGraphic"/>
      </feMerge>
    </filter>

    <filter id="redGlow">
      <feGaussianBlur in="SourceAlpha" stdDeviation="4" result="blur"/>
      <feFlood flood-color="#FF0044" flood-opacity="0.8" result="color"/>
      <feComposite in="color" in2="blur" operator="in" result="glow"/>
      <feMerge>
        <feMergeNode in="glow"/>
        <feMergeNode in="SourceGraphic"/>
      </feMerge>
    </filter>

    <filter id="greenGlow">
      <feGaussianBlur in="SourceAlpha" stdDeviation="4" result="blur"/>
      <feFlood flood-color="#00FF88" flood-opacity="0.7" result="color"/>
      <feComposite in="color" in2="blur" operator="in" result="glow"/>
      <feMerge>
        <feMergeNode in="glow"/>
        <feMergeNode in="SourceGraphic"/>
      </feMerge>
    </filter>

    <filter id="goldGlow">
      <feGaussianBlur in="SourceAlpha" stdDeviation="3" result="blur"/>
      <feFlood flood-color="#FFD700" flood-opacity="0.6" result="color"/>
      <feComposite in="color" in2="blur" operator="in" result="glow"/>
      <feMerge>
        <feMergeNode in="glow"/>
        <feMergeNode in="SourceGraphic"/>
      </feMerge>
    </filter>

    <filter id="boardShadow">
      <feDropShadow dx="0" dy="0" stdDeviation="18" flood-color="#000000" flood-opacity="0.8"/>
    </filter>

    <filter id="panelShadow">
      <feDropShadow dx="0" dy="4" stdDeviation="12" flood-color="#000000" flood-opacity="0.7"/>
    </filter>

    <filter id="tileShadow">
      <feDropShadow dx="3" dy="5" stdDeviation="6" flood-color="#000000" flood-opacity="0.6"/>
    </filter>

    <filter id="smokeBlur">
      <feGaussianBlur stdDeviation="10"/>
    </filter>

    <pattern id="grain" x="0" y="0" width="1200" height="22" patternUnits="userSpaceOnUse">
      <line x1="0" y1="11" x2="1200" y2="11" stroke="#FFFFFF" stroke-width="0.4" opacity="0.02"/>
    </pattern>

  </defs>

  <!-- ══ PAGE ══ -->
  <rect width="1200" height="800" fill="url(#pageBg)"/>
  <rect width="1200" height="800" fill="url(#grain)"/>

  <text x="600" y="38" font-family="Georgia, serif" font-size="12"
        text-anchor="middle" fill="#5A1A6A" letter-spacing="6" opacity="0.9">LEXICON  —  WORD BOMB  —  TIER V</text>
  <line x1="180" y1="48" x2="1020" y2="48" stroke="#3A0850" stroke-width="1" opacity="0.6"/>

  <!-- ══ BACKGROUND BOARD (dimmed — Tempest bypasses the grid) ══ -->
  <rect x="80" y="65" width="840" height="680" rx="8"
        fill="url(#boardSurf)" opacity="0.35" filter="url(#boardShadow)"/>

  <!-- Dim grid lines — just for context, not the focus -->
  <g stroke="#C8922A" stroke-width="0.6" opacity="0.08">
    <!-- verticals -->
    <line x1="164" y1="120" x2="164" y2="680"/><line x1="232" y1="120" x2="232" y2="680"/>
    <line x1="300" y1="120" x2="300" y2="680"/><line x1="368" y1="120" x2="368" y2="680"/>
    <line x1="436" y1="120" x2="436" y2="680"/><line x1="504" y1="120" x2="504" y2="680"/>
    <line x1="572" y1="120" x2="572" y2="680"/><line x1="640" y1="120" x2="640" y2="680"/>
    <line x1="708" y1="120" x2="708" y2="680"/><line x1="776" y1="120" x2="776" y2="680"/>
    <line x1="844" y1="120" x2="844" y2="680"/>
    <!-- horizontals -->
    <line x1="164" y1="120" x2="844" y2="120"/><line x1="164" y1="176" x2="844" y2="176"/>
    <line x1="164" y1="232" x2="844" y2="232"/><line x1="164" y1="288" x2="844" y2="288"/>
    <line x1="164" y1="344" x2="844" y2="344"/><line x1="164" y1="400" x2="844" y2="400"/>
    <line x1="164" y1="456" x2="844" y2="456"/><line x1="164" y1="512" x2="844" y2="512"/>
    <line x1="164" y1="568" x2="844" y2="568"/><line x1="164" y1="624" x2="844" y2="624"/>
    <line x1="164" y1="680" x2="844" y2="680"/>
  </g>

  <!-- "NO CELL TARGETED" text ghosted on board -->
  <text x="504" y="400" font-family="Georgia, serif" font-size="18"
        text-anchor="middle" fill="#E040FB" opacity="0.06"
        letter-spacing="8">NO CELL TARGETED</text>

  <!-- Board runes (very dim) -->
  <g fill="#2A1A3A" font-family="serif" font-size="11" opacity="0.25">
    <text x="108" y="88">ᚠ</text><text x="124" y="88">ᚢ</text>
    <text x="140" y="88">ᚦ</text><text x="156" y="88">ᚨ</text>
    <text x="680" y="88">ᛁ</text><text x="696" y="88">ᛃ</text>
    <text x="712" y="88">ᛇ</text><text x="728" y="88">ᛈ</text>
    <text x="744" y="88">ᛉ</text><text x="760" y="88">ᛊ</text>
    <text x="776" y="88">ᛏ</text><text x="792" y="88">ᛒ</text>
    <text x="808" y="88">ᛖ</text>
  </g>

  <!-- Board corner brackets (dim) -->
  <g fill="url(#ironGrad)" opacity="0.3">
    <rect x="80"  y="65"  width="44" height="9"  rx="2"/>
    <rect x="80"  y="65"  width="9"  height="44" rx="2"/>
    <rect x="876" y="65"  width="44" height="9"  rx="2"/>
    <rect x="911" y="65"  width="9"  height="44" rx="2"/>
    <rect x="80"  y="736" width="44" height="9"  rx="2"/>
    <rect x="80"  y="700" width="9"  height="44" rx="2"/>
    <rect x="876" y="736" width="44" height="9"  rx="2"/>
    <rect x="911" y="700" width="9"  height="44" rx="2"/>
  </g>

  <!-- ══════════════════════════════════════════════════
       MAIN SCENE — two bank panels + vortex
  ══════════════════════════════════════════════════ -->

  <!-- ── ENEMY BANK PANEL (left) ── -->
  <rect x="92" y="160" width="260" height="440" rx="12"
        fill="url(#enemyBank)" opacity="0.97" filter="url(#panelShadow)"/>
  <rect x="92" y="160" width="260" height="440" rx="12"
        fill="none" stroke="#880022" stroke-width="1.5" opacity="0.7"/>

  <!-- Enemy panel header -->
  <rect x="92" y="160" width="260" height="44" rx="12"
        fill="#330010" opacity="0.9"/>
  <rect x="92" y="192" width="260" height="12" fill="#330010" opacity="0.9"/>
  <text x="222" y="187" font-family="Georgia, serif" font-size="13"
        font-weight="bold" text-anchor="middle" fill="#FF4466"
        filter="url(#redGlow)" letter-spacing="2">ENEMY BANK</text>

  <!-- Enemy bank tiles — 6 tiles, one is being stolen (K) -->
  <!-- Row 1 -->
  <g transform="translate(108, 218)" filter="url(#tileShadow)">
    <!-- Tile E -->
    <rect x="3" y="3" width="50" height="44" rx="6" fill="url(#tileBase)" opacity="0.8"/>
    <rect x="-1" y="-1" width="52" height="46" rx="7" fill="none" stroke="#888899" stroke-width="1.2"/>
    <rect x="0" y="0" width="50" height="44" rx="6" fill="url(#ivoryFace)"/>
    <text x="25" y="33" font-family="Georgia, serif" font-size="26" font-weight="bold"
          text-anchor="middle" fill="#1C0E00">E</text>
    <text x="36" y="41" font-family="Georgia, serif" font-size="8" fill="#C8922A">1</text>
  </g>
  <g transform="translate(174, 218)" filter="url(#tileShadow)">
    <!-- Tile O -->
    <rect x="3" y="3" width="50" height="44" rx="6" fill="url(#tileBase)" opacity="0.8"/>
    <rect x="-1" y="-1" width="52" height="46" rx="7" fill="none" stroke="#888899" stroke-width="1.2"/>
    <rect x="0" y="0" width="50" height="44" rx="6" fill="url(#ivoryFace)"/>
    <text x="25" y="33" font-family="Georgia, serif" font-size="26" font-weight="bold"
          text-anchor="middle" fill="#1C0E00">O</text>
    <text x="36" y="41" font-family="Georgia, serif" font-size="8" fill="#C8922A">1</text>
  </g>
  <g transform="translate(240, 218)" filter="url(#tileShadow)">
    <!-- Tile R -->
    <rect x="3" y="3" width="50" height="44" rx="6" fill="url(#tileBase)" opacity="0.8"/>
    <rect x="-1" y="-1" width="52" height="46" rx="7" fill="none" stroke="#888899" stroke-width="1.2"/>
    <rect x="0" y="0" width="50" height="44" rx="6" fill="url(#ivoryFace)"/>
    <text x="25" y="33" font-family="Georgia, serif" font-size="26" font-weight="bold"
          text-anchor="middle" fill="#1C0E00">R</text>
    <text x="36" y="41" font-family="Georgia, serif" font-size="8" fill="#C8922A">1</text>
  </g>
  <!-- Row 2 -->
  <g transform="translate(108, 282)" filter="url(#tileShadow)">
    <!-- Tile T -->
    <rect x="3" y="3" width="50" height="44" rx="6" fill="url(#tileBase)" opacity="0.8"/>
    <rect x="-1" y="-1" width="52" height="46" rx="7" fill="none" stroke="#00D4FF" stroke-width="1.5"/>
    <rect x="0" y="0" width="50" height="44" rx="6" fill="url(#ivoryFace)"/>
    <text x="25" y="33" font-family="Georgia, serif" font-size="26" font-weight="bold"
          text-anchor="middle" fill="#1C0E00">T</text>
    <text x="36" y="41" font-family="Georgia, serif" font-size="8" fill="#00D4FF">1</text>
  </g>
  <g transform="translate(174, 282)" filter="url(#tileShadow)">
    <!-- Tile N -->
    <rect x="3" y="3" width="50" height="44" rx="6" fill="url(#tileBase)" opacity="0.8"/>
    <rect x="-1" y="-1" width="52" height="46" rx="7" fill="none" stroke="#888899" stroke-width="1.2"/>
    <rect x="0" y="0" width="50" height="44" rx="6" fill="url(#ivoryFace)"/>
    <text x="25" y="33" font-family="Georgia, serif" font-size="26" font-weight="bold"
          text-anchor="middle" fill="#1C0E00">N</text>
    <text x="36" y="41" font-family="Georgia, serif" font-size="8" fill="#C8922A">1</text>
  </g>

  <!-- ── THE STOLEN TILE — K (Rare) being ripped out ── -->
  <!-- Empty slot where K was — ghosted outline -->
  <g transform="translate(240, 282)">
    <rect x="0" y="0" width="50" height="44" rx="6"
          fill="#220010" opacity="0.8"
          stroke="#AA0033" stroke-width="1.5" stroke-dasharray="4,3"/>
    <text x="25" y="28" font-family="Georgia, serif" font-size="22"
          text-anchor="middle" fill="#440020" opacity="0.4">K</text>
    <!-- Spiral wisps leaving the slot -->
    <path d="M 25,22 Q 35,12 42,18 Q 48,24 40,30" stroke="#E040FB" stroke-width="1"
          fill="none" opacity="0.5"/>
    <path d="M 25,22 Q 14,14 10,22 Q 8,30 16,34" stroke="#E040FB" stroke-width="0.8"
          fill="none" opacity="0.35"/>
  </g>

  <!-- Row 3 -->
  <g transform="translate(108, 346)" filter="url(#tileShadow)">
    <!-- Tile S -->
    <rect x="3" y="3" width="50" height="44" rx="6" fill="url(#tileBase)" opacity="0.8"/>
    <rect x="-1" y="-1" width="52" height="46" rx="7" fill="none" stroke="#888899" stroke-width="1.2"/>
    <rect x="0" y="0" width="50" height="44" rx="6" fill="url(#ivoryFace)"/>
    <text x="25" y="33" font-family="Georgia, serif" font-size="26" font-weight="bold"
          text-anchor="middle" fill="#1C0E00">S</text>
    <text x="36" y="41" font-family="Georgia, serif" font-size="8" fill="#C8922A">1</text>
  </g>
  <g transform="translate(174, 346)" filter="url(#tileShadow)">
    <!-- Tile I -->
    <rect x="3" y="3" width="50" height="44" rx="6" fill="url(#tileBase)" opacity="0.8"/>
    <rect x="-1" y="-1" width="52" height="46" rx="7" fill="none" stroke="#888899" stroke-width="1.2"/>
    <rect x="0" y="0" width="50" height="44" rx="6" fill="url(#ivoryFace)"/>
    <text x="25" y="33" font-family="Georgia, serif" font-size="26" font-weight="bold"
          text-anchor="middle" fill="#1C0E00">I</text>
    <text x="36" y="41" font-family="Georgia, serif" font-size="8" fill="#C8922A">1</text>
  </g>
  <g transform="translate(240, 346)" filter="url(#tileShadow)">
    <!-- Tile A -->
    <rect x="3" y="3" width="50" height="44" rx="6" fill="url(#tileBase)" opacity="0.8"/>
    <rect x="-1" y="-1" width="52" height="46" rx="7" fill="none" stroke="#888899" stroke-width="1.2"/>
    <rect x="0" y="0" width="50" height="44" rx="6" fill="url(#ivoryFace)"/>
    <text x="25" y="33" font-family="Georgia, serif" font-size="26" font-weight="bold"
          text-anchor="middle" fill="#1C0E00">A</text>
    <text x="36" y="41" font-family="Georgia, serif" font-size="8" fill="#C8922A">1</text>
  </g>

  <!-- Enemy bank count -->
  <text x="222" y="428" font-family="'Courier New', monospace" font-size="11"
        text-anchor="middle" fill="#880022" opacity="0.7">8 → 7 letters remaining</text>
  <text x="222" y="446" font-family="'Courier New', monospace" font-size="10"
        text-anchor="middle" fill="#660018" opacity="0.55">K  intercepted</text>

  <!-- Enemy bank bottom warning -->
  <rect x="107" y="458" width="230" height="28" rx="6" fill="#330010" opacity="0.7"/>
  <text x="222" y="476" font-family="Georgia, serif" font-size="11"
        text-anchor="middle" fill="#FF4466" filter="url(#redGlow)" opacity="0.8">⚠  BANK COMPROMISED</text>

  <!-- Panel bottom border -->
  <rect x="92" y="560" width="260" height="40" rx="12" fill="#220010" opacity="0.6"/>
  <rect x="92" y="560" width="260" height="12" fill="#220010" opacity="0.9"/>
  <text x="222" y="585" font-family="'Courier New', monospace" font-size="10"
        text-anchor="middle" fill="#660018" letter-spacing="2" opacity="0.7">OPPONENT PLAYER</text>

  <!-- ══════════════════════════════════
       VORTEX PORTAL — centre stage
  ══════════════════════════════════ -->
  <!-- Centre x=504, y=400 -->

  <!-- Deep outer smoke -->
  <ellipse cx="504" cy="400" rx="130" ry="110"
           fill="#220033" opacity="0.4" filter="url(#smokeBlur)"/>

  <!-- Outer glow rings — skewed ellipses to imply rotation -->
  <ellipse cx="504" cy="400" rx="115" ry="88"
           fill="none" stroke="#440055" stroke-width="1" opacity="0.2"/>
  <ellipse cx="504" cy="400" rx="98"  ry="72"
           fill="none" stroke="#880099" stroke-width="1.2" opacity="0.3"/>
  <ellipse cx="504" cy="400" rx="80"  ry="58"
           fill="none" stroke="#AA00CC" stroke-width="1.8" opacity="0.45"
           filter="url(#magentaGlow)"/>
  <ellipse cx="504" cy="400" rx="62"  ry="44"
           fill="none" stroke="#CC44DD" stroke-width="2.2" opacity="0.6"
           filter="url(#magentaGlow)"/>
  <ellipse cx="504" cy="400" rx="44"  ry="30"
           fill="none" stroke="#E040FB" stroke-width="2.8" opacity="0.8"
           filter="url(#magentaGlow)"/>
  <ellipse cx="504" cy="400" rx="26"  ry="18"
           fill="none" stroke="#FF80FF" stroke-width="2.5" opacity="0.9"
           filter="url(#magentaGlow)"/>

  <!-- Vortex spiral arms — 4 arms rotating inward -->
  <!-- Arm 1 -->
  <path d="M 504,312 Q 560,320 572,360 Q 580,396 548,412 Q 520,426 504,420"
        stroke="#E040FB" stroke-width="1.8" fill="none" opacity="0.55" filter="url(#magentaGlow)"/>
  <!-- Arm 2 -->
  <path d="M 504,488 Q 448,480 436,440 Q 428,404 460,388 Q 488,374 504,380"
        stroke="#E040FB" stroke-width="1.8" fill="none" opacity="0.55" filter="url(#magentaGlow)"/>
  <!-- Arm 3 -->
  <path d="M 418,356 Q 422,310 456,300 Q 492,292 508,316 Q 518,334 510,356"
        stroke="#CC44DD" stroke-width="1.2" fill="none" opacity="0.4" filter="url(#magentaGlow)"/>
  <!-- Arm 4 -->
  <path d="M 590,444 Q 586,490 552,500 Q 516,508 500,484 Q 490,466 498,444"
        stroke="#CC44DD" stroke-width="1.2" fill="none" opacity="0.4" filter="url(#magentaGlow)"/>

  <!-- Vortex core fill -->
  <circle cx="504" cy="400" r="28" fill="url(#vortexCore)" opacity="0.8" filter="url(#vortexFx)"/>
  <circle cx="504" cy="400" r="16" fill="url(#vortexCore)" opacity="0.95" filter="url(#vortexFx)"/>
  <circle cx="504" cy="400" r="7"  fill="#FFFFFF" filter="url(#vortexFx)"/>
  <circle cx="504" cy="400" r="3"  fill="#FFFFFF"/>

  <!-- ══ STOLEN LETTER K — in transit through vortex ══ -->
  <!-- Trail particles left to centre -->
  <g opacity="0.6" filter="url(#magentaGlow)">
    <circle cx="310" cy="328" r="3"   fill="#E040FB"/>
    <circle cx="348" cy="340" r="4"   fill="#E040FB"/>
    <circle cx="390" cy="354" r="5.5" fill="#FF80FF"/>
    <circle cx="432" cy="368" r="4"   fill="#E040FB"/>
    <circle cx="460" cy="378" r="3"   fill="#E040FB"/>
  </g>
  <!-- Transit trail arc -->
  <path d="M 290,304 Q 380,330 460,370 Q 490,385 504,400"
        stroke="url(#transitTrail)" stroke-width="3" fill="none"
        opacity="0.75" filter="url(#magentaGlow)"/>

  <!-- The tile K — mid-vortex, partially dissolved -->
  <g transform="translate(462, 358) rotate(-22, 25, 22)" opacity="0.85" filter="url(#tileShadow)">
    <rect x="2" y="2" width="46" height="40" rx="6"
          fill="url(#tileBase)" opacity="0.7"/>
    <!-- Rare gold border — K is a rare tile -->
    <rect x="-1" y="-1" width="48" height="42" rx="7"
          fill="none" stroke="#F5A623" stroke-width="2"
          filter="url(#magentaGlow)" opacity="0.85"/>
    <rect x="0" y="0" width="46" height="40" rx="6"
          fill="url(#ivoryFace)" opacity="0.7"/>
    <!-- Dissolving magenta overlay -->
    <rect x="0" y="0" width="46" height="40" rx="6"
          fill="#E040FB" opacity="0.3"/>
    <text x="23" y="30" font-family="Georgia, serif" font-size="24" font-weight="bold"
          text-anchor="middle" fill="#1C0E00" opacity="0.8">K</text>
    <text x="34" y="38" font-family="Georgia, serif" font-size="8" fill="#F5A623">5</text>
    <!-- Dissolve wisps -->
    <path d="M 46,5 L 54,0 L 50,-6" stroke="#E040FB" stroke-width="1" fill="none" opacity="0.7"/>
    <path d="M 46,20 L 56,16 L 52,10" stroke="#FF80FF" stroke-width="0.8" fill="none" opacity="0.6"/>
    <path d="M 0,30 L -8,26 L -4,20" stroke="#E040FB" stroke-width="1" fill="none" opacity="0.5"/>
  </g>

  <!-- Trail particles centre to right bank -->
  <g opacity="0.45" filter="url(#magentaGlow)">
    <circle cx="548" cy="418" r="3.5" fill="#E040FB"/>
    <circle cx="578" cy="428" r="4.5" fill="#FF80FF"/>
    <circle cx="614" cy="436" r="3"   fill="#E040FB"/>
    <circle cx="648" cy="442" r="5"   fill="#E040FB"/>
    <circle cx="682" cy="446" r="3"   fill="#FF80FF"/>
  </g>
  <!-- Trail arc to right -->
  <path d="M 504,400 Q 560,415 648,440 Q 690,450 720,455"
        stroke="#E040FB" stroke-width="2" fill="none"
        opacity="0.4" stroke-dasharray="6,4" filter="url(#magentaGlow)"/>

  <!-- ── YOUR BANK PANEL (right) ── -->
  <rect x="648" y="160" width="260" height="440" rx="12"
        fill="url(#yourBank)" opacity="0.97" filter="url(#panelShadow)"/>
  <rect x="648" y="160" width="260" height="440" rx="12"
        fill="none" stroke="#008844" stroke-width="1.5" opacity="0.7"/>

  <!-- Your panel header -->
  <rect x="648" y="160" width="260" height="44" rx="12" fill="#061A0E" opacity="0.9"/>
  <rect x="648" y="192" width="260" height="12" fill="#061A0E" opacity="0.9"/>
  <text x="778" y="187" font-family="Georgia, serif" font-size="13"
        font-weight="bold" text-anchor="middle" fill="#00FF88"
        filter="url(#greenGlow)" letter-spacing="2">YOUR BANK</text>

  <!-- Your tiles — existing 5 tiles -->
  <g transform="translate(664, 218)" filter="url(#tileShadow)">
    <rect x="3" y="3" width="50" height="44" rx="6" fill="url(#tileBase)" opacity="0.8"/>
    <rect x="-1" y="-1" width="52" height="46" rx="7" fill="none" stroke="#888899" stroke-width="1.2"/>
    <rect x="0" y="0" width="50" height="44" rx="6" fill="url(#ivoryFace)"/>
    <text x="25" y="33" font-family="Georgia, serif" font-size="26" font-weight="bold"
          text-anchor="middle" fill="#1C0E00">W</text>
    <text x="36" y="41" font-family="Georgia, serif" font-size="8" fill="#C8922A">4</text>
  </g>
  <g transform="translate(730, 218)" filter="url(#tileShadow)">
    <rect x="3" y="3" width="50" height="44" rx="6" fill="url(#tileBase)" opacity="0.8"/>
    <rect x="-1" y="-1" width="52" height="46" rx="7" fill="none" stroke="#888899" stroke-width="1.2"/>
    <rect x="0" y="0" width="50" height="44" rx="6" fill="url(#ivoryFace)"/>
    <text x="25" y="33" font-family="Georgia, serif" font-size="26" font-weight="bold"
          text-anchor="middle" fill="#1C0E00">O</text>
    <text x="36" y="41" font-family="Georgia, serif" font-size="8" fill="#C8922A">1</text>
  </g>
  <g transform="translate(796, 218)" filter="url(#tileShadow)">
    <rect x="3" y="3" width="50" height="44" rx="6" fill="url(#tileBase)" opacity="0.8"/>
    <rect x="-1" y="-1" width="52" height="46" rx="7" fill="none" stroke="#888899" stroke-width="1.2"/>
    <rect x="0" y="0" width="50" height="44" rx="6" fill="url(#ivoryFace)"/>
    <text x="25" y="33" font-family="Georgia, serif" font-size="26" font-weight="bold"
          text-anchor="middle" fill="#1C0E00">R</text>
    <text x="36" y="41" font-family="Georgia, serif" font-size="8" fill="#C8922A">1</text>
  </g>
  <g transform="translate(664, 282)" filter="url(#tileShadow)">
    <rect x="3" y="3" width="50" height="44" rx="6" fill="url(#tileBase)" opacity="0.8"/>
    <rect x="-1" y="-1" width="52" height="46" rx="7" fill="none" stroke="#888899" stroke-width="1.2"/>
    <rect x="0" y="0" width="50" height="44" rx="6" fill="url(#ivoryFace)"/>
    <text x="25" y="33" font-family="Georgia, serif" font-size="26" font-weight="bold"
          text-anchor="middle" fill="#1C0E00">D</text>
    <text x="36" y="41" font-family="Georgia, serif" font-size="8" fill="#C8922A">2</text>
  </g>
  <g transform="translate(730, 282)" filter="url(#tileShadow)">
    <rect x="3" y="3" width="50" height="44" rx="6" fill="url(#tileBase)" opacity="0.8"/>
    <rect x="-1" y="-1" width="52" height="46" rx="7" fill="none" stroke="#888899" stroke-width="1.2"/>
    <rect x="0" y="0" width="50" height="44" rx="6" fill="url(#ivoryFace)"/>
    <text x="25" y="33" font-family="Georgia, serif" font-size="26" font-weight="bold"
          text-anchor="middle" fill="#1C0E00">S</text>
    <text x="36" y="41" font-family="Georgia, serif" font-size="8" fill="#C8922A">1</text>
  </g>

  <!-- ARRIVING TILE K — glowing, just landed -->
  <g transform="translate(796, 282)" filter="url(#tileShadow)">
    <rect x="3" y="3" width="50" height="44" rx="6" fill="url(#tileBase)" opacity="0.8"/>
    <!-- Rare gold border, extra bright arrival glow -->
    <rect x="-1" y="-1" width="52" height="46" rx="7"
          fill="none" stroke="#F5A623" stroke-width="2.5"
          filter="url(#magentaGlow)" opacity="0.95"/>
    <rect x="0" y="0" width="50" height="44" rx="6" fill="url(#ivoryFace)"/>
    <!-- Fresh arrival magenta shimmer -->
    <rect x="0" y="0" width="50" height="44" rx="6" fill="#E040FB" opacity="0.18"/>
    <text x="25" y="33" font-family="Georgia, serif" font-size="26" font-weight="bold"
          text-anchor="middle" fill="#1C0E00" filter="url(#magentaGlow)">K</text>
    <text x="36" y="41" font-family="Georgia, serif" font-size="8" fill="#F5A623">5</text>
    <!-- NEW badge -->
    <rect x="30" y="-8" width="24" height="14" rx="4" fill="#E040FB" opacity="0.9"/>
    <text x="42" y="1" font-family="'Courier New', monospace" font-size="8"
          font-weight="bold" text-anchor="middle" fill="#FFFFFF">NEW</text>
  </g>

  <!-- Your bank count -->
  <text x="778" y="358" font-family="'Courier New', monospace" font-size="11"
        text-anchor="middle" fill="#008844" opacity="0.7">5 → 6 letters in bank</text>
  <text x="778" y="376" font-family="'Courier New', monospace" font-size="10"
        text-anchor="middle" fill="#006633" opacity="0.55">K  intercepted  +5 score</text>

  <!-- Your bank bottom -->
  <rect x="648" y="560" width="260" height="40" rx="12" fill="#061A0E" opacity="0.6"/>
  <rect x="648" y="560" width="260" height="12" fill="#061A0E" opacity="0.9"/>
  <text x="778" y="585" font-family="'Courier New', monospace" font-size="10"
        text-anchor="middle" fill="#006633" letter-spacing="2" opacity="0.7">YOU</text>

  <!-- ══ BOTTOM BOMB CARD ══ -->
  <rect x="190" y="616" width="620" height="130" rx="12"
        fill="url(#cardBg)" opacity="0.97" filter="url(#panelShadow)"/>
  <rect x="190" y="616" width="620" height="130" rx="12"
        fill="none" stroke="#9900BB" stroke-width="1.5" filter="url(#magentaGlow)" opacity="0.6"/>

  <!-- Tier badge -->
  <rect x="190" y="616" width="80" height="130" rx="12" fill="#160820" opacity="0.9"/>
  <rect x="240" y="616" width="30" height="130" fill="#160820" opacity="0.9"/>
  <text x="235" y="672" font-family="Georgia, serif" font-size="10"
        text-anchor="middle" fill="#6A1A8A" letter-spacing="2">TIER</text>
  <text x="235" y="700" font-family="Georgia, serif" font-size="26"
        font-weight="bold" text-anchor="middle" fill="#E040FB"
        filter="url(#magentaGlow)">V</text>
  <line x1="272" y1="624" x2="272" y2="738" stroke="#9900BB" stroke-width="1" opacity="0.3"/>

  <!-- Bomb info -->
  <text x="420" y="644" font-family="Georgia, serif" font-size="24"
        font-weight="bold" text-anchor="middle" fill="#E040FB"
        filter="url(#magentaGlow)" letter-spacing="4">TEMPEST</text>
  <text x="420" y="668" font-family="'Courier New', monospace" font-size="13"
        text-anchor="middle" fill="#FFFFFF" letter-spacing="8" opacity="0.7">T E M P E S T</text>
  <line x1="278" y1="680" x2="562" y2="680" stroke="#9900BB" stroke-width="0.8" opacity="0.3"/>
  <text x="420" y="700" font-family="Calibri, sans-serif" font-size="12"
        text-anchor="middle" fill="#CC88EE" opacity="0.9">Intercept — steals 1 random letter from enemy bank.</text>
  <text x="420" y="718" font-family="Calibri, sans-serif" font-size="11"
        text-anchor="middle" fill="#884499" opacity="0.8">No cell targeted. 7 letters spent. Letter transfers immediately.</text>
  <text x="420" y="734" font-family="Calibri, sans-serif" font-size="11"
        text-anchor="middle" fill="#663377" opacity="0.7">If enemy bank is empty, Tempest fires but has no effect.</text>

  <!-- Tier ladder — right of card -->
  <g font-family="'Courier New', monospace" font-size="10" opacity="0.55">
    <text x="618" y="638" fill="#AA8800">I   SPARK       gold</text>
    <text x="618" y="653" fill="#882200">II  BLAST       red</text>
    <text x="618" y="668" fill="#007A88">III SURGE       teal</text>
    <text x="618" y="683" fill="#5A2A8A">IV  STORM       purple</text>
    <text x="618" y="698" fill="#AA00CC" opacity="0.9">V   TEMPEST     magenta</text>
    <text x="618" y="713" fill="#334455">VI  OBLITERATE  —</text>
  </g>

  <!-- Watermark -->
  <text x="504" y="400" font-family="Georgia, serif" font-size="90"
        font-weight="bold" text-anchor="middle" dominant-baseline="middle"
        fill="#E040FB" opacity="0.018" letter-spacing="4">TEMPEST</text>

</svg>
