<svg xmlns="http://www.w3.org/2000/svg" viewBox="0 0 1200 800" width="1200" height="800">
  <defs>

    <!-- Backgrounds -->
    <linearGradient id="pageBg" x1="0%" y1="0%" x2="100%" y2="100%">
      <stop offset="0%" style="stop-color:#0D1117"/>
      <stop offset="100%" style="stop-color:#080D13"/>
    </linearGradient>
    <linearGradient id="boardSurf" x1="0%" y1="0%" x2="100%" y2="100%">
      <stop offset="0%" style="stop-color:#141E2C"/>
      <stop offset="100%" style="stop-color:#0A1018"/>
    </linearGradient>
    <linearGradient id="ironGrad" x1="0%" y1="0%" x2="100%" y2="100%">
      <stop offset="0%" style="stop-color:#4A4A5A"/>
      <stop offset="100%" style="stop-color:#1A1A25"/>
    </linearGradient>

    <!-- Blast core — deep red/orange/white impact -->
    <radialGradient id="blastCore" cx="50%" cy="50%" r="50%">
      <stop offset="0%"   style="stop-color:#FFFFFF"/>
      <stop offset="15%"  style="stop-color:#FFEEAA"/>
      <stop offset="35%"  style="stop-color:#FF6600"/>
      <stop offset="60%"  style="stop-color:#CC2200"/>
      <stop offset="85%"  style="stop-color:#880000;stop-opacity:0.5"/>
      <stop offset="100%" style="stop-color:#440000;stop-opacity:0"/>
    </radialGradient>

    <!-- Shockwave ring gradient -->
    <radialGradient id="shockRing" cx="50%" cy="50%" r="50%">
      <stop offset="70%"  style="stop-color:#FF4400;stop-opacity:0"/>
      <stop offset="85%"  style="stop-color:#FF8800;stop-opacity:0.6"/>
      <stop offset="95%"  style="stop-color:#FFCC44;stop-opacity:0.9"/>
      <stop offset="100%" style="stop-color:#FFFFFF;stop-opacity:0.4"/>
    </radialGradient>

    <!-- Cell destruction fill -->
    <radialGradient id="cellDestroy" cx="50%" cy="50%" r="50%">
      <stop offset="0%"   style="stop-color:#FF4400;stop-opacity:0.6"/>
      <stop offset="50%"  style="stop-color:#CC2200;stop-opacity:0.3"/>
      <stop offset="100%" style="stop-color:#880000;stop-opacity:0"/>
    </radialGradient>

    <!-- Debris shard fill -->
    <linearGradient id="shard" x1="0%" y1="0%" x2="100%" y2="100%">
      <stop offset="0%"   style="stop-color:#FFDD88"/>
      <stop offset="100%" style="stop-color:#FF6600"/>
    </linearGradient>

    <!-- Card bg -->
    <linearGradient id="cardBg" x1="0%" y1="0%" x2="0%" y2="100%">
      <stop offset="0%"   style="stop-color:#1A0C08"/>
      <stop offset="100%" style="stop-color:#0A0604"/>
    </linearGradient>

    <!-- Tile face ivory -->
    <linearGradient id="ivoryFace" x1="10%" y1="8%" x2="88%" y2="92%">
      <stop offset="0%"   style="stop-color:#F7EDD0"/>
      <stop offset="40%"  style="stop-color:#EDD9A3"/>
      <stop offset="100%" style="stop-color:#B8963A"/>
    </linearGradient>

    <!-- FILTERS -->
    <filter id="blastFx" x="-120%" y="-120%" width="340%" height="340%">
      <feGaussianBlur in="SourceAlpha" stdDeviation="16" result="b1"/>
      <feFlood flood-color="#FF4400" flood-opacity="1" result="c1"/>
      <feComposite in="c1" in2="b1" operator="in" result="g1"/>
      <feGaussianBlur in="SourceAlpha" stdDeviation="36" result="b2"/>
      <feFlood flood-color="#FF2200" flood-opacity="0.6" result="c2"/>
      <feComposite in="c2" in2="b2" operator="in" result="g2"/>
      <feGaussianBlur in="SourceAlpha" stdDeviation="60" result="b3"/>
      <feFlood flood-color="#880000" flood-opacity="0.4" result="c3"/>
      <feComposite in="c3" in2="b3" operator="in" result="g3"/>
      <feMerge>
        <feMergeNode in="g3"/>
        <feMergeNode in="g2"/>
        <feMergeNode in="g1"/>
        <feMergeNode in="SourceGraphic"/>
      </feMerge>
    </filter>

    <filter id="shardFx" x="-30%" y="-30%" width="160%" height="160%">
      <feGaussianBlur in="SourceAlpha" stdDeviation="2.5" result="blur"/>
      <feFlood flood-color="#FF8800" flood-opacity="0.8" result="color"/>
      <feComposite in="color" in2="blur" operator="in" result="glow"/>
      <feMerge>
        <feMergeNode in="glow"/>
        <feMergeNode in="SourceGraphic"/>
      </feMerge>
    </filter>

    <filter id="boardShadow">
      <feDropShadow dx="0" dy="0" stdDeviation="18" flood-color="#000000" flood-opacity="0.8"/>
    </filter>

    <filter id="labelGlow">
      <feGaussianBlur in="SourceAlpha" stdDeviation="3" result="blur"/>
      <feFlood flood-color="#FFD700" flood-opacity="0.6" result="color"/>
      <feComposite in="color" in2="blur" operator="in" result="glow"/>
      <feMerge>
        <feMergeNode in="glow"/>
        <feMergeNode in="SourceGraphic"/>
      </feMerge>
    </filter>

    <filter id="redLabelGlow">
      <feGaussianBlur in="SourceAlpha" stdDeviation="4" result="blur"/>
      <feFlood flood-color="#FF4400" flood-opacity="0.9" result="color"/>
      <feComposite in="color" in2="blur" operator="in" result="glow"/>
      <feMerge>
        <feMergeNode in="glow"/>
        <feMergeNode in="SourceGraphic"/>
      </feMerge>
    </filter>

    <filter id="smokeBlur">
      <feGaussianBlur stdDeviation="8"/>
    </filter>

    <filter id="tileShadow">
      <feDropShadow dx="4" dy="6" stdDeviation="8" flood-color="#000000" flood-opacity="0.6"/>
    </filter>

    <pattern id="grain" x="0" y="0" width="1200" height="22" patternUnits="userSpaceOnUse">
      <line x1="0" y1="11" x2="1200" y2="11" stroke="#FFFFFF" stroke-width="0.4" opacity="0.02"/>
    </pattern>

    <!-- Grid clip -->
    <clipPath id="gridClip">
      <rect x="155" y="120" width="680" height="560"/>
    </clipPath>

  </defs>

  <!-- ══ PAGE ══════════════════════════════════════════════════════ -->
  <rect width="1200" height="800" fill="url(#pageBg)"/>
  <rect width="1200" height="800" fill="url(#grain)"/>

  <!-- Header -->
  <text x="600" y="38" font-family="Georgia, serif" font-size="12"
        text-anchor="middle" fill="#6B4F1A" letter-spacing="6" opacity="0.8">LEXICON  —  WORD BOMB  —  TIER II</text>
  <line x1="180" y1="48" x2="1020" y2="48" stroke="#3A2A08" stroke-width="1" opacity="0.5"/>

  <!-- ══ BOARD (left panel) ════════════════════════════════════════ -->
  <!-- Board: x=80 y=65 w=760 h=650 -->
  <rect x="80" y="65" width="760" height="680" rx="8"
        fill="url(#boardSurf)" filter="url(#boardShadow)"/>
  <rect x="80" y="65" width="760" height="680" rx="8"
        fill="url(#grain)" opacity="0.5"/>
  <rect x="80" y="65" width="760" height="680" rx="8"
        fill="none" stroke="#2A3A50" stroke-width="2"/>

  <!-- Runes top border -->
  <g fill="#4A3A18" font-family="serif" font-size="11" opacity="0.45">
    <text x="98"  y="88">ᚠ</text><text x="114" y="88">ᚢ</text><text x="130" y="88">ᚦ</text>
    <text x="146" y="88">ᚨ</text><text x="162" y="88">ᚱ</text><text x="178" y="88">ᚲ</text>
    <text x="194" y="88">ᚷ</text>
    <text x="640" y="88">ᛁ</text><text x="656" y="88">ᛃ</text><text x="672" y="88">ᛇ</text>
    <text x="688" y="88">ᛈ</text><text x="704" y="88">ᛉ</text><text x="720" y="88">ᛊ</text>
    <text x="736" y="88">ᛏ</text><text x="752" y="88">ᛒ</text><text x="768" y="88">ᛖ</text>
    <text x="784" y="88">ᛗ</text><text x="800" y="88">ᛚ</text><text x="816" y="88">ᛞ</text>
  </g>

  <!-- ══ GRID: x=155 y=120, 10 cols × 10 rows, 68×56px per cell ═══
       Total: 680w × 560h  →  right edge x=835, bottom y=680
       Col centres (A-J): 189,257,325,393,461,529,597,665,733,801
       Row centres (1-10): 148,204,260,316,372,428,484,540,596,652
  ════════════════════════════════════════════════════════════════ -->

  <!-- Grid bg -->
  <rect x="155" y="120" width="680" height="560" fill="#070E18" opacity="0.95"/>

  <!-- Target cell highlight — D6 (col D=x:359-427, row 6=y:400-456) centre 393,428 -->
  <!-- Pre-blast: targeting reticle glow -->
  <rect x="359" y="400" width="68" height="56"
        fill="url(#cellDestroy)" filter="url(#blastFx)"/>

  <!-- Grid lines — glow pass -->
  <g stroke="#C8922A" stroke-width="2" opacity="0.18">
    <line x1="155" y1="120" x2="155" y2="680"/><line x1="223" y1="120" x2="223" y2="680"/>
    <line x1="291" y1="120" x2="291" y2="680"/><line x1="359" y1="120" x2="359" y2="680"/>
    <line x1="427" y1="120" x2="427" y2="680"/><line x1="495" y1="120" x2="495" y2="680"/>
    <line x1="563" y1="120" x2="563" y2="680"/><line x1="631" y1="120" x2="631" y2="680"/>
    <line x1="699" y1="120" x2="699" y2="680"/><line x1="767" y1="120" x2="767" y2="680"/>
    <line x1="835" y1="120" x2="835" y2="680"/>
    <line x1="155" y1="120" x2="835" y2="120"/><line x1="155" y1="176" x2="835" y2="176"/>
    <line x1="155" y1="232" x2="835" y2="232"/><line x1="155" y1="288" x2="835" y2="288"/>
    <line x1="155" y1="344" x2="835" y2="344"/><line x1="155" y1="400" x2="835" y2="400"/>
    <line x1="155" y1="456" x2="835" y2="456"/><line x1="155" y1="512" x2="835" y2="512"/>
    <line x1="155" y1="568" x2="835" y2="568"/><line x1="155" y1="624" x2="835" y2="624"/>
    <line x1="155" y1="680" x2="835" y2="680"/>
  </g>
  <!-- Grid lines — sharp pass -->
  <g stroke="#D4A030" stroke-width="0.8" opacity="0.8">
    <line x1="155" y1="120" x2="155" y2="680"/><line x1="223" y1="120" x2="223" y2="680"/>
    <line x1="291" y1="120" x2="291" y2="680"/><line x1="359" y1="120" x2="359" y2="680"/>
    <line x1="427" y1="120" x2="427" y2="680"/><line x1="495" y1="120" x2="495" y2="680"/>
    <line x1="563" y1="120" x2="563" y2="680"/><line x1="631" y1="120" x2="631" y2="680"/>
    <line x1="699" y1="120" x2="699" y2="680"/><line x1="767" y1="120" x2="767" y2="680"/>
    <line x1="835" y1="120" x2="835" y2="680"/>
    <line x1="155" y1="120" x2="835" y2="120"/><line x1="155" y1="176" x2="835" y2="176"/>
    <line x1="155" y1="232" x2="835" y2="232"/><line x1="155" y1="288" x2="835" y2="288"/>
    <line x1="155" y1="344" x2="835" y2="344"/><line x1="155" y1="400" x2="835" y2="400"/>
    <line x1="155" y1="456" x2="835" y2="456"/><line x1="155" y1="512" x2="835" y2="512"/>
    <line x1="155" y1="568" x2="835" y2="568"/><line x1="155" y1="624" x2="835" y2="624"/>
    <line x1="155" y1="680" x2="835" y2="680"/>
  </g>

  <!-- Target cell D6 border — bright red -->
  <rect x="359" y="400" width="68" height="56"
        fill="none" stroke="#FF4400" stroke-width="2.5"
        opacity="0.9" filter="url(#redLabelGlow)"/>

  <!-- Column labels A-J (top + bottom) -->
  <g font-family="Georgia, serif" font-size="15" font-weight="bold"
     text-anchor="middle" fill="#F5C842" filter="url(#labelGlow)">
    <text x="189" y="112">A</text><text x="257" y="112">B</text><text x="325" y="112">C</text>
    <text x="393" y="112" fill="#FF8844" filter="url(#redLabelGlow)">D</text>
    <text x="461" y="112">E</text><text x="529" y="112">F</text><text x="597" y="112">G</text>
    <text x="665" y="112">H</text><text x="733" y="112">I</text><text x="801" y="112">J</text>
    <text x="189" y="700">A</text><text x="257" y="700">B</text><text x="325" y="700">C</text>
    <text x="393" y="700" fill="#FF8844" filter="url(#redLabelGlow)">D</text>
    <text x="461" y="700">E</text><text x="529" y="700">F</text><text x="597" y="700">G</text>
    <text x="665" y="700">H</text><text x="733" y="700">I</text><text x="801" y="700">J</text>
  </g>

  <!-- Row labels 1-10 (left + right) -->
  <g font-family="Georgia, serif" font-size="14" font-weight="bold"
     text-anchor="middle" dominant-baseline="middle" fill="#F5C842" filter="url(#labelGlow)">
    <text x="140" y="148">1</text><text x="140" y="204">2</text><text x="140" y="260">3</text>
    <text x="140" y="316">4</text><text x="140" y="372">5</text>
    <text x="140" y="428" fill="#FF8844" filter="url(#redLabelGlow)">6</text>
    <text x="140" y="484">7</text><text x="140" y="540">8</text>
    <text x="140" y="596">9</text><text x="137" y="652">10</text>
    <text x="850" y="148">1</text><text x="850" y="204">2</text><text x="850" y="260">3</text>
    <text x="850" y="316">4</text><text x="850" y="372">5</text>
    <text x="850" y="428" fill="#FF8844" filter="url(#redLabelGlow)">6</text>
    <text x="850" y="484">7</text><text x="850" y="540">8</text>
    <text x="850" y="596">9</text><text x="853" y="652">10</text>
  </g>

  <!-- ══ BLAST EFFECT at D6 (centre 393, 428) ══════════════════════ -->

  <!-- Smoke / char cloud underneath everything -->
  <ellipse cx="393" cy="428" rx="55" ry="40"
           fill="#221100" opacity="0.5" filter="url(#smokeBlur)"/>

  <!-- Shockwave rings -->
  <circle cx="393" cy="428" r="38"
          fill="url(#shockRing)" opacity="0.5"/>
  <circle cx="393" cy="428" r="58"
          fill="none" stroke="#FF6600" stroke-width="3"
          opacity="0.35" filter="url(#shardFx)"/>
  <circle cx="393" cy="428" r="80"
          fill="none" stroke="#CC3300" stroke-width="1.5"
          opacity="0.2" filter="url(#shardFx)"/>
  <circle cx="393" cy="428" r="108"
          fill="none" stroke="#881100" stroke-width="1"
          opacity="0.1"/>

  <!-- Debris shards flying outward — 12 directions -->
  <!-- Top shards -->
  <polygon points="393,394 388,378 396,372 401,386" fill="url(#shard)" opacity="0.85" filter="url(#shardFx)"/>
  <polygon points="410,388 408,368 416,364 418,382" fill="url(#shard)" opacity="0.7" filter="url(#shardFx)"/>
  <polygon points="376,388 372,370 380,366 382,384" fill="url(#shard)" opacity="0.7" filter="url(#shardFx)"/>

  <!-- Bottom shards -->
  <polygon points="393,462 388,480 396,486 401,468" fill="url(#shard)" opacity="0.8" filter="url(#shardFx)"/>
  <polygon points="410,468 408,488 416,492 418,472" fill="url(#shard)" opacity="0.65" filter="url(#shardFx)"/>
  <polygon points="376,468 372,486 380,490 382,472" fill="url(#shard)" opacity="0.65" filter="url(#shardFx)"/>

  <!-- Right shards -->
  <polygon points="427,428 445,422 449,430 432,436" fill="url(#shard)" opacity="0.85" filter="url(#shardFx)"/>
  <polygon points="432,412 452,406 456,414 436,420" fill="url(#shard)" opacity="0.6" filter="url(#shardFx)"/>
  <polygon points="432,444 452,450 456,442 436,436" fill="url(#shard)" opacity="0.6" filter="url(#shardFx)"/>

  <!-- Left shards -->
  <polygon points="359,428 341,422 337,430 354,436" fill="url(#shard)" opacity="0.85" filter="url(#shardFx)"/>
  <polygon points="354,412 334,406 330,414 350,420" fill="url(#shard)" opacity="0.6" filter="url(#shardFx)"/>
  <polygon points="354,444 334,450 330,442 350,436" fill="url(#shard)" opacity="0.6" filter="url(#shardFx)"/>

  <!-- Diagonal micro shards -->
  <polygon points="420,402 430,386 436,390 426,406" fill="#FFDD88" opacity="0.55" filter="url(#shardFx)"/>
  <polygon points="366,402 356,386 350,390 360,406" fill="#FFDD88" opacity="0.55" filter="url(#shardFx)"/>
  <polygon points="420,454 430,470 436,466 426,450" fill="#FFDD88" opacity="0.5" filter="url(#shardFx)"/>
  <polygon points="366,454 356,470 350,466 360,450" fill="#FFDD88" opacity="0.5" filter="url(#shardFx)"/>

  <!-- Outer particle specks -->
  <g fill="#FF8800" opacity="0.6" filter="url(#shardFx)">
    <circle cx="393" cy="358" r="2.5"/><circle cx="430" cy="366" r="2"/>
    <circle cx="356" cy="366" r="2"/><circle cx="448" cy="390" r="2.5"/>
    <circle cx="338" cy="390" r="2.5"/><circle cx="456" cy="428" r="2"/>
    <circle cx="330" cy="428" r="2"/><circle cx="448" cy="466" r="2.5"/>
    <circle cx="338" cy="466" r="2.5"/><circle cx="393" cy="498" r="2.5"/>
    <circle cx="422" cy="494" r="2"/><circle cx="364" cy="494" r="2"/>
  </g>

  <!-- Blast core -->
  <circle cx="393" cy="428" r="32" fill="url(#blastCore)" opacity="0.85" filter="url(#blastFx)"/>
  <circle cx="393" cy="428" r="18" fill="url(#blastCore)" opacity="0.95" filter="url(#blastFx)"/>
  <circle cx="393" cy="428" r="8" fill="#FFFFFF" opacity="1" filter="url(#blastFx)"/>
  <circle cx="393" cy="428" r="3" fill="#FFFFFF"/>

  <!-- Impact cross / crosshair remnant -->
  <line x1="393" y1="408" x2="393" y2="418" stroke="#FFFFFF" stroke-width="2.5" opacity="0.8"/>
  <line x1="393" y1="438" x2="393" y2="448" stroke="#FFFFFF" stroke-width="2.5" opacity="0.8"/>
  <line x1="373" y1="428" x2="383" y2="428" stroke="#FFFFFF" stroke-width="2.5" opacity="0.8"/>
  <line x1="403" y1="428" x2="413" y2="428" stroke="#FFFFFF" stroke-width="2.5" opacity="0.8"/>

  <!-- Corner brackets -->
  <g fill="url(#ironGrad)">
    <rect x="80" y="65" width="44" height="9" rx="2"/><rect x="80" y="65" width="9" height="44" rx="2"/>
    <rect x="796" y="65" width="44" height="9" rx="2"/><rect x="831" y="65" width="9" height="44" rx="2"/>
    <rect x="80" y="736" width="44" height="9" rx="2"/><rect x="80" y="700" width="9" height="44" rx="2"/>
    <rect x="796" y="736" width="44" height="9" rx="2"/><rect x="831" y="700" width="9" height="44" rx="2"/>
  </g>
  <g fill="#222230">
    <circle cx="102" cy="84" r="3.5"/><circle cx="94" cy="92" r="2.5"/>
    <circle cx="818" cy="84" r="3.5"/><circle cx="826" cy="92" r="2.5"/>
    <circle cx="102" cy="726" r="3.5"/><circle cx="94" cy="718" r="2.5"/>
    <circle cx="818" cy="726" r="3.5"/><circle cx="826" cy="718" r="2.5"/>
  </g>

  <!-- ══ RIGHT PANEL ════════════════════════════════════════════════ -->

  <!-- Panel bg -->
  <rect x="880" y="65" width="290" height="680" rx="8"
        fill="#0C0F18" opacity="0.95" filter="url(#boardShadow)"/>
  <rect x="880" y="65" width="290" height="680" rx="8"
        fill="none" stroke="#2A3A50" stroke-width="1.5"/>

  <!-- ── BOMB CARD ── -->
  <rect x="900" y="85" width="250" height="160" rx="10"
        fill="url(#cardBg)" opacity="0.95"/>
  <rect x="900" y="85" width="250" height="160" rx="10"
        fill="none" stroke="#FF4400" stroke-width="1.5" filter="url(#redLabelGlow)" opacity="0.7"/>

  <!-- Tier badge -->
  <rect x="900" y="85" width="64" height="160" rx="10"
        fill="#1A0800" opacity="0.9"/>
  <rect x="936" y="85" width="28" height="160" fill="#1A0800" opacity="0.9"/>
  <text x="932" y="152" font-family="Georgia, serif" font-size="10"
        text-anchor="middle" fill="#8B4020" letter-spacing="2">TIER</text>
  <text x="932" y="182" font-family="Georgia, serif" font-size="32"
        font-weight="bold" text-anchor="middle" fill="#FF6600"
        filter="url(#redLabelGlow)">II</text>
  <line x1="966" y1="93" x2="966" y2="237" stroke="#FF4400" stroke-width="1" opacity="0.3"/>

  <!-- Bomb name -->
  <text x="1093" y="122" font-family="Georgia, serif" font-size="30"
        font-weight="bold" text-anchor="middle" fill="#FF6600"
        filter="url(#redLabelGlow)" letter-spacing="3">BLAST</text>

  <!-- Word played -->
  <text x="1093" y="150" font-family="'Courier New', monospace" font-size="16"
        text-anchor="middle" fill="#FFFFFF" letter-spacing="10" opacity="0.75">R A T E</text>

  <!-- Divider -->
  <line x1="970" y1="162" x2="1140" y2="162" stroke="#FF4400" stroke-width="0.8" opacity="0.3"/>

  <!-- Target info -->
  <text x="1055" y="182" font-family="Georgia, serif" font-size="13"
        text-anchor="middle" fill="#FF8844" opacity="0.9">Target Cell</text>
  <text x="1055" y="204" font-family="Georgia, serif" font-size="22"
        font-weight="bold" text-anchor="middle" fill="#FFFFFF"
        filter="url(#redLabelGlow)" letter-spacing="4">D  6</text>
  <text x="1055" y="225" font-family="Calibri, sans-serif" font-size="11"
        text-anchor="middle" fill="#CC6633" opacity="0.8">4 letters spent</text>

  <!-- ── TILE PREVIEW — shows the tile at D6 ── -->
  <text x="1025" y="276" font-family="Georgia, serif" font-size="11"
        text-anchor="middle" fill="#6B4F1A" letter-spacing="3" opacity="0.7">TILE HIT</text>
  <line x1="900" y1="283" x2="1150" y2="283" stroke="#2A1A08" stroke-width="1" opacity="0.5"/>

  <!-- Tile at D6 — cracked/destroyed version -->
  <g transform="translate(975, 300)" filter="url(#tileShadow)">
    <!-- Base -->
    <rect x="6" y="7" width="100" height="110" rx="10" fill="#1A0800" opacity="0.8"/>
    <!-- Border — gold (Rare tile) glowing -->
    <rect x="-2" y="-2" width="104" height="114" rx="12"
          fill="none" stroke="#F5A623" stroke-width="3" filter="url(#redLabelGlow)" opacity="0.7"/>
    <!-- Face — cracked warm ivory -->
    <rect x="0" y="0" width="100" height="110" rx="10" fill="url(#ivoryFace)" opacity="0.5"/>
    <!-- Crack lines across tile -->
    <path d="M 30,0 L 50,35 L 40,55 L 60,110"
          stroke="#000000" stroke-width="2" fill="none" opacity="0.6"/>
    <path d="M 60,0 L 50,35 L 65,70 L 55,110"
          stroke="#000000" stroke-width="1.5" fill="none" opacity="0.4"/>
    <path d="M 0,40 L 25,50 L 50,35 L 80,48 L 100,38"
          stroke="#000000" stroke-width="1.5" fill="none" opacity="0.5"/>
    <!-- Red impact overlay -->
    <rect x="0" y="0" width="100" height="110" rx="10"
          fill="#FF2200" opacity="0.25"/>
    <!-- Letter — fading -->
    <text x="50" y="82" font-family="Georgia, serif" font-size="72"
          font-weight="bold" text-anchor="middle"
          fill="#1C0E00" opacity="0.6">X</text>
    <!-- Score -->
    <rect x="68" y="86" width="26" height="20" rx="4" fill="#0D0600" opacity="0.8"/>
    <text x="81" y="100" font-family="Georgia, serif" font-size="13"
          font-weight="bold" text-anchor="middle" fill="#F5A623">8</text>
    <!-- Tier label -->
    <text x="50" y="107" font-family="'Courier New', monospace" font-size="7"
          font-weight="bold" text-anchor="middle" fill="#F5A623" letter-spacing="2"
          opacity="0.6">RARE</text>
    <!-- Destroyed X -->
    <line x1="5" y1="5" x2="95" y2="105" stroke="#FF4400" stroke-width="2" opacity="0.5"/>
    <line x1="95" y1="5" x2="5" y2="105" stroke="#FF4400" stroke-width="2" opacity="0.5"/>
  </g>

  <!-- Collected label -->
  <text x="1025" y="438" font-family="Georgia, serif" font-size="11"
        text-anchor="middle" fill="#6B4F1A" letter-spacing="3" opacity="0.7">LETTER COLLECTED</text>
  <!-- Letter X added to bank indicator -->
  <rect x="990" y="446" width="70" height="50" rx="8"
        fill="#1A0D00" opacity="0.9"/>
  <rect x="990" y="446" width="70" height="50" rx="8"
        fill="none" stroke="#F5A623" stroke-width="1.5" filter="url(#redLabelGlow)" opacity="0.6"/>
  <text x="1025" y="480" font-family="Georgia, serif" font-size="28"
        font-weight="bold" text-anchor="middle" fill="#FFDD88"
        filter="url(#redLabelGlow)">X</text>
  <text x="1025" y="508" font-family="Calibri, sans-serif" font-size="10"
        text-anchor="middle" fill="#CC8833" opacity="0.7">added to bank  •  ×2 rare</text>

  <!-- Effect summary -->
  <line x1="900" y1="525" x2="1150" y2="525" stroke="#2A1A08" stroke-width="1" opacity="0.5"/>
  <text x="1025" y="545" font-family="Georgia, serif" font-size="11"
        text-anchor="middle" fill="#6B4F1A" letter-spacing="3" opacity="0.7">EFFECT</text>

  <text x="1025" y="570" font-family="Calibri, sans-serif" font-size="12"
        text-anchor="middle" fill="#FF9966" opacity="0.9">Precision strike — no guessing.</text>
  <text x="1025" y="588" font-family="Calibri, sans-serif" font-size="12"
        text-anchor="middle" fill="#FF9966" opacity="0.9">You choose the exact cell.</text>
  <text x="1025" y="612" font-family="Calibri, sans-serif" font-size="11"
        text-anchor="middle" fill="#8B5030" opacity="0.75">Hit tile → harvest letter.</text>
  <text x="1025" y="628" font-family="Calibri, sans-serif" font-size="11"
        text-anchor="middle" fill="#8B5030" opacity="0.75">Miss → cell confirmed empty.</text>

  <!-- Standalone asset note -->
  <line x1="900" y1="650" x2="1150" y2="650" stroke="#2A1A08" stroke-width="1" opacity="0.5"/>
  <text x="1025" y="668" font-family="Georgia, serif" font-size="10"
        text-anchor="middle" fill="#4A3A18" letter-spacing="2" opacity="0.6">STANDALONE ASSET</text>
  <text x="1025" y="686" font-family="Calibri, sans-serif" font-size="10"
        text-anchor="middle" fill="#3A2A14" opacity="0.6">68 × 56px  •  single cell overlay</text>
  <text x="1025" y="700" font-family="Calibri, sans-serif" font-size="10"
        text-anchor="middle" fill="#3A2A14" opacity="0.6">centre on target cell, any position</text>
  <text x="1025" y="720" font-family="Calibri, sans-serif" font-size="10"
        text-anchor="middle" fill="#3A2A14" opacity="0.55">transparent bg  •  drop + scale to fit</text>

  <!-- Watermark -->
  <text x="495" y="420" font-family="Georgia, serif" font-size="140"
        font-weight="bold" text-anchor="middle" dominant-baseline="middle"
        fill="#FF2200" opacity="0.025" letter-spacing="8">BLAST</text>

</svg>
